<svg id="Слой_1" data-name="Слой 1" xmlns="http://www.w3.org/2000/svg" viewBox="0 0 441.26 114.55"><defs><style>.cls-1,.cls-2{fill:#fff;}.cls-1,.cls-3,.cls-6{fill-rule:evenodd;}.cls-3,.cls-4{fill:#34dec4;}.cls-5{fill:none;}</style></defs><title>mario-biglogo</title><path class="cls-1" d="M40,44v6H74.24v-5.8H80.8V38.55H86v-6H81.14V26.94H74V21.08H40V32.55h-6.1v6H40Z"/><rect class="cls-2" x="49.47" y="48.89" width="19.27" height="9.77"/><rect x="62.97" y="21.14" width="5.54" height="11.43"/><path class="cls-3" d="M44.55,32.55V21.14H81v-6H74.2V9.55H40v5.63H33.55V27.37h-5.2V38.55h5.54v-6Z"/><polygon class="cls-3" points="62.52 69.58 62.52 93.15 80.42 93.15 80.42 69.58 92.11 69.58 92.11 63.61 86.48 63.61 86.48 57.98 30.2 57.98 30.2 63.61 21.61 63.61 21.61 69.58 33.01 69.58 33.01 93.15 50.83 93.15 50.83 69.58 62.52 69.58"/><path class="cls-3" d="M92.11,98.55H86.39V93H68.74v11.6H92.11ZM27.21,93H44.86v11.6H21.49v-6h5.72Z"/><rect class="cls-4" x="41.8" y="67.65" width="30.12" height="18.93"/><rect class="cls-2" x="74.88" y="75.55" width="17.23" height="5.97"/><rect class="cls-2" x="62.52" y="69.58" width="6.14" height="5.41"/><rect class="cls-2" x="80.34" y="69.58" width="11.77" height="17.17"/><rect y="9.38" width="1.28" height="2.63"/><rect y="9.38" width="1.28" height="2.63"/><polygon class="cls-3" points="46.59 65.28 46.59 57.98 17.36 57.98 17.36 65.09 12.05 65.09 12.05 72.31 5.32 72.31 5.32 79.45 0.17 79.45 0.17 86.75 46.93 86.75 46.93 79.45 44.03 79.45 44.03 72.39 46.3 72.39 46.3 65.28 46.59 65.28"/><rect class="cls-2" x="21.24" y="69.58" width="11.77" height="17.19"/><rect class="cls-2" x="21.24" y="75.56" width="17.23" height="5.98"/><rect class="cls-2" x="44.86" y="69.58" width="6.14" height="5.41"/><path class="cls-2" d="M139.66,35.8H126.41l-2.9,8.85h-6.3l12.5-35h7l12.5,35h-6.6Zm-11.5-5.25h9.75l-2.5-7.65-2.35-7.2-2.35,7.2Z"/><path class="cls-2" d="M151.71,36.4V9.65h5.8V35.8c0,2.6,1.15,3.75,3.45,3.75h1.25v5.1h-2.3C154.66,44.65,151.71,41.7,151.71,36.4Z"/><path class="cls-2" d="M164.46,33v-1.6c0-7.55,4.6-12.15,11.75-12.15S188,23.9,188,32.2v1.95H170.3c.3,4.15,2.4,5.9,5.95,5.9s5-1.45,5.5-3.1h6c-1,4.7-4.5,8.2-11.5,8.2C169.06,45.1,164.46,40.55,164.46,33Zm5.9-3.45h11.7c-.45-3.7-2.45-5.2-5.85-5.2s-5.35,1.6-5.85,5.25Z"/><path class="cls-2" d="M202.06,35l-3.3,4.25v5.4H193v-35h5.8V31l8.4-11.3H214l-8.1,10.9,9.1,14.1h-7Z"/><path class="cls-2" d="M216,36.4h6.1c.5,2.85,1.55,3.9,4.4,3.9,3.35,0,4.4-1,4.4-2.65,0-5.5-14.4-1.35-14.4-11.1,0-4.15,3.2-7.35,10-7.35,6.35,0,9.5,3.15,10,8.45h-6.1c-.5-2.7-1.45-3.65-3.9-3.65-2.85,0-3.9,1.05-3.9,2.4,0,5,14.4.8,14.4,11.1,0,4.4-3.2,7.6-10.5,7.6C219.66,45.1,216.46,41.9,216,36.4Z"/><path class="cls-2" d="M240.46,33v-1.6c0-7.55,4.6-12.15,11.75-12.15S264,23.9,264,32.2v1.95H246.3c.3,4.15,2.4,5.9,6,5.9s5-1.45,5.5-3.1h6c-1,4.7-4.5,8.2-11.5,8.2C245.06,45.1,240.46,40.55,240.46,33Zm5.9-3.45h11.7c-.45-3.7-2.45-5.2-5.85-5.2s-5.35,1.6-5.85,5.25Z"/><path class="cls-2" d="M275,44.65l-10-25h6.29l6.8,17.9,6.4-17.9h6l-13.25,35h-6Z"/><path class="cls-2" d="M117.76,69.55h25v5.3l-18.6,24.4h18.6v5.3H117.3v-5.3L136,74.85H117.76Z"/><path class="cls-2" d="M146,97.4c0-5.25,3.15-8.4,11.5-8.4h4.2V87.55c0-2.4-1.25-3.65-4.2-3.65s-4,1.15-4.2,2.9H147c.25-4.45,3.5-7.7,10.5-7.7,6.65,0,10,3.35,10,8.45v17H163l-.6-3.45a9.5,9.5,0,0,1-8.1,3.9C148.86,105,146,102.1,146,97.4Zm15.7-3.15v-.7h-4.2c-4,0-5.4,1.45-5.4,3.7a2.82,2.82,0,0,0,2.71,2.92,2.57,2.57,0,0,0,.48,0A6.18,6.18,0,0,0,161.71,94.25Z"/><path class="cls-2" d="M173.76,79.55h4.54l.45,2.8a9.48,9.48,0,0,1,7.55-3.3h2.5v5.4h-2.5c-4.55,0-6.7,2.15-6.7,5.55v14.55h-5.8Z"/><path class="cls-2" d="M191,97.4c0-5.25,3.15-8.4,11.5-8.4h4.2V87.55c0-2.4-1.25-3.65-4.2-3.65s-4,1.15-4.2,2.9H192c.25-4.45,3.5-7.7,10.5-7.7,6.65,0,10,3.35,10,8.45v17H208l-.6-3.45a9.5,9.5,0,0,1-8.1,3.9C193.86,105,191,102.1,191,97.4Zm15.7-3.15v-.7h-4.2c-4,0-5.4,1.45-5.4,3.7a2.82,2.82,0,0,0,2.71,2.92,2.57,2.57,0,0,0,.48,0A6.18,6.18,0,0,0,206.71,94.25Z"/><path class="cls-2" d="M214.76,79.55h6.3l6.5,18.7,6.2-18.7h6l-8.75,25h-7Z"/><path class="cls-2" d="M243.3,79.55h4.55l.45,2.8a9.9,9.9,0,0,1,7.75-3.25c6.1,0,9.75,3.65,9.75,11v14.45H260V90c0-3.65-1.9-5.55-5-5.55-3.6,0-5.85,2.15-5.95,5.3v14.8H243.3Z"/><path class="cls-2" d="M278.06,104.55,268,79.55h6.29l6.8,17.9,6.4-17.9h6l-13.2,35h-6Z"/><path class="cls-2" d="M294.3,97.4c0-5.25,3.15-8.4,11.5-8.4H310V87.55c0-2.4-1.25-3.65-4.2-3.65s-3.95,1.15-4.2,2.9h-6.3c.25-4.45,3.5-7.7,10.5-7.7,6.65,0,10,3.35,10,8.45v17h-4.55l-.6-3.45a9.5,9.5,0,0,1-8.1,3.9C297.11,105,294.3,102.1,294.3,97.4ZM310,94.25v-.7h-4.2c-3.95,0-5.4,1.45-5.4,3.7a2.83,2.83,0,0,0,2.67,3,3.85,3.85,0,0,0,.48,0A6.18,6.18,0,0,0,310,94.26h0Z"/><path class="cls-2" d="M318.51,79.55H323v-7h5.8v7H335v5.1h-6.2v11c0,2.6,1.15,3.75,3.5,3.75h3.2v5.15H331.3c-5.3,0-8.25-3-8.25-8.25V84.6h-4.5Z"/><path class="cls-2" d="M339.51,79.55h4.55l.45,2.8a9.9,9.9,0,0,1,7.79-3.3c6.1,0,9.75,3.65,9.75,11v14.5h-5.8V90c0-3.65-1.9-5.55-5-5.55-3.6,0-5.85,2.15-5.95,5.3v14.8h-5.8Z"/><path class="cls-2" d="M374.3,104.55l-10-25h6.3l6.8,17.9,6.4-17.9h6l-13.25,35h-6Z"/><path class="cls-2" d="M402.36,94.85l-3.3,4.25v5.45H393.3v-35h5.8v21.3l8.4-11.3h6.8l-8.1,10.9,9.1,14.1h-7Z"/><path class="cls-2" d="M418.76,69.55h5.8v12.1a9.41,9.41,0,0,1,6.95-2.6c6.1,0,9.75,3.65,9.75,11v14.5h-5.8V90c0-3.65-1.9-5.55-5-5.55-3.6,0-5.85,2.1-5.95,5.3v14.8h-5.8Z"/><rect class="cls-5" x="14.14" width="79.74" height="114.19"/><polygon class="cls-6" points="52.23 38.81 52.23 33.45 57.76 33.45 57.76 38.36 68.09 38.36 68.09 43.72 57.04 43.72 57.04 38.81 52.23 38.81"/></svg>