<?xml version="1.0" encoding="UTF-8"?>
<!DOCTYPE svg PUBLIC "-//W3C//DTD SVG 1.1//EN" "http://www.w3.org/Graphics/SVG/1.1/DTD/svg11.dtd">
<!-- Creator: CorelDRAW 2019 (64-Bit) -->
<svg xmlns="http://www.w3.org/2000/svg" xml:space="preserve" width="42.015mm" height="42.354mm" version="1.1" style="shape-rendering:geometricPrecision; text-rendering:geometricPrecision; image-rendering:optimizeQuality; fill-rule:evenodd; clip-rule:evenodd"
viewBox="0 0 4201.5 4235.4"
 xmlns:xlink="http://www.w3.org/1999/xlink"
 xmlns:xodm="http://www.corel.com/coreldraw/odm/2003">
 <defs>
  <style type="text/css">
   <![CDATA[
    .fil2 {fill:black}
    .fil0 {fill:#34DEC4}
    .fil1 {fill:white}
   ]]>
  </style>
 </defs>
 <g id="Слой_x0020_1">
  <metadata id="CorelCorpID_0Corel-Layer"/>
  <g id="_2343807110352">
   <path class="fil0" d="M3705.63 2762.41l-681.52 0 0.94 -417 465.08 0 0 -637.19 242.53 0 0 -242.54 269.01 0 0 -725.72 -1348.28 0 0 254.74 -308.69 0 0 1052.21 -1200.86 0 0 0.03 -427.51 0 0 299.29 -223.57 0 0 303.96 -283.33 0 0 300.58 -216.84 0 0 307.59c48.34,0 1428.23,0.59 744.23,0.59l0 983.83 251.35 0 0 -240.58 247.02 0 0 -225.83 474.46 0 0 245.43 669.93 0 0 -249.83 357.6 0 0 -244.26 285.21 0 698.12 0 0 -261.77 473.49 0 0 -983.83 -251.35 0 0 240.58 -237.02 0 0 239.72z"/>
   <path class="fil1" d="M1552.76 1709.45l397.27 0 0 366.21 811.47 0 0 -366.21 231.36 0 0 -244.18 276.19 0 0 -236.98 219.13 0 0 -251.35 -204.67 0 0 -236.99 -301.73 0 0 -246.44 -1429.02 0c0,160.43 0,323.05 0,483.43l-256.82 0 0 251.35 256.82 0c0,160.39 0,320.77 0,481.16z"/>
   <path class="fil0" d="M1743.01 976.94l0 -481.13 1535.42 0 0 -251.35 -287.22 0 0 -236.98 -1438.45 0 0 236.98 -272.89 0c0,172.54 1.74,340.73 1.74,513.35l-219.05 0 0 470.52 233.38 0 0 -251.39c149.04,0 298.03,0 447.07,0z"/>
   <path class="fil2" d="M2052.13 1250.54l0 -233.37 240.54 0 0 213.77 450.08 0 0 233.37 -481.12 0 0 -213.77 -209.5 0zm466.43 -273.63l233.37 0 0 -481.12 -233.37 0 0 481.12z"/>
   <path class="fil1" d="M3277.73 244.44l229.77 0 0 -220.05 495.5 0 0 715.57 -495.5 0 0 -244.17 -229.77 0 0 -251.35zm-1254.4 2518.42l258.51 0 0 -227.6 -258.51 0 0 227.6zm743.27 0l258.52 0 0 -227.6 -258.52 0 0 227.6zm-1665.9 267.21l0 229.76 251.63 0 0 -229.76 251.95 0 0 -495.5 -251.95 0 -251.63 0 -220.3 0 0 495.5 220.3 0z"/>
  </g>
 </g>
</svg>
