<?xml version="1.0" encoding="UTF-8"?>
<!DOCTYPE svg PUBLIC "-//W3C//DTD SVG 1.1//EN" "http://www.w3.org/Graphics/SVG/1.1/DTD/svg11.dtd">
<!-- Creator: CorelDRAW 2019 (64-Bit) -->
<svg xmlns="http://www.w3.org/2000/svg" xml:space="preserve" width="9.2318mm" height="8.099mm" version="1.1" style="shape-rendering:geometricPrecision; text-rendering:geometricPrecision; image-rendering:optimizeQuality; fill-rule:evenodd; clip-rule:evenodd"
viewBox="0 0 915.7 803.34"
 xmlns:xlink="http://www.w3.org/1999/xlink"
 xmlns:xodm="http://www.corel.com/coreldraw/odm/2003">
 <defs>
  <style type="text/css">
   <![CDATA[
    .fil0 {fill:#34DEC4}
    .fil1 {fill:black;fill-rule:nonzero}
   ]]>
  </style>
 </defs>
 <g id="Слой_x0020_1">
  <metadata id="CorelCorpID_0Corel-Layer"/>
  <g id="_2444311731264">
   <path class="fil0" d="M66.77 0l782.15 0c36.73,0 66.77,30.05 66.77,66.77l0 462.61c0,36.72 -30.05,66.77 -66.77,66.77l-782.15 0c-36.72,0 -66.77,-30.04 -66.77,-66.77l0 -462.61c0,-36.73 30.04,-66.77 66.77,-66.77z"/>
   <path class="fil0" d="M288.99 674.46l337.72 0 39.5 88.26c4.12,9.19 3.35,19.02 -2.12,27.48 -5.49,8.45 -14.13,13.15 -24.2,13.15l-364.07 0c-10.08,0 -18.73,-4.7 -24.21,-13.15 -5.48,-8.45 -6.23,-18.28 -2.11,-27.48l39.5 -88.26z"/>
   <path class="fil1" d="M252.36 304.14c-18.44,-21.18 -16.21,-53.29 4.97,-71.73 21.18,-18.44 53.29,-16.21 71.73,4.97l94.2 108.2 177.6 -206.79c18.21,-21.3 50.24,-23.78 71.54,-5.56 21.3,18.21 23.78,50.25 5.56,71.54l-213.81 248.98c-2.11,2.81 -4.54,5.45 -7.31,7.85 -21.18,18.44 -53.29,16.21 -71.73,-4.97l-132.75 -152.46z"/>
  </g>
 </g>
</svg>
