<?xml version="1.0" encoding="UTF-8"?>
<!DOCTYPE svg PUBLIC "-//W3C//DTD SVG 1.1//EN" "http://www.w3.org/Graphics/SVG/1.1/DTD/svg11.dtd">
<!-- Creator: CorelDRAW 2019 (64-Bit) -->
<svg xmlns="http://www.w3.org/2000/svg" xml:space="preserve" width="19.8298mm" height="19.8298mm" version="1.1" style="shape-rendering:geometricPrecision; text-rendering:geometricPrecision; image-rendering:optimizeQuality; fill-rule:evenodd; clip-rule:evenodd"
viewBox="0 0 1982.98 1982.98"
 xmlns:xlink="http://www.w3.org/1999/xlink"
 xmlns:xodm="http://www.corel.com/coreldraw/odm/2003">
 <defs>
  <style type="text/css">
   <![CDATA[
    .fil0 {fill:#34DEC4}
    .fil1 {fill:black;fill-rule:nonzero}
   ]]>
  </style>
 </defs>
 <g id="Слой_x0020_1">
  <metadata id="CorelCorpID_0Corel-Layer"/>
  <g id="_2444417302704">
   <circle class="fil0" cx="983.92" cy="999.06" r="991.32"/>
   <path class="fil1" d="M1263.2 1280.75c21.12,-42.81 72.97,-60.39 115.78,-39.27 42.81,21.12 60.39,72.97 39.28,115.78 -41.99,84.67 -107.13,156.02 -187.18,205.75l0.1 0.16c-77.66,48.2 -169.09,76.05 -266.74,76.05 -97.65,0 -189.08,-27.85 -266.74,-76.05l0.09 -0.16c-80.04,-49.73 -145.18,-121.08 -187.17,-205.75 -21.12,-42.81 -3.54,-94.66 39.27,-115.78 42.81,-21.12 94.66,-3.54 115.78,39.27 27.71,55.9 70.56,102.87 123.1,135.47l0.35 0c50.68,31.46 110.76,49.64 175.32,49.64 64.55,0 124.63,-18.18 175.32,-49.64l0.34 0c52.54,-32.6 95.39,-79.57 123.1,-135.47z"/>
   <path class="fil1" d="M418.83 996.55c-25.98,40.01 -79.51,51.38 -119.52,25.4 -40.01,-25.99 -51.37,-79.51 -25.39,-119.52l238.77 -365.64c25.98,-40.01 79.51,-51.37 119.52,-25.39 10.88,7.06 19.64,16.18 26.11,26.49l238.04 364.54c25.98,40.01 14.62,93.53 -25.39,119.52 -40.01,25.98 -93.54,14.61 -119.52,-25.4l-166.3 -254.69 -166.32 254.69z"/>
   <path class="fil1" d="M1117.87 662.59c-44.27,0 -80.18,-35.9 -80.18,-80.18 0,-44.27 35.91,-80.18 80.18,-80.18l426.63 0c44.28,0 80.18,35.91 80.18,80.18 0,25.12 -11.56,47.56 -29.65,62.25l-257.85 239.69 223.83 0c44.28,0 80.18,35.91 80.18,80.18 0,44.27 -35.9,80.18 -80.18,80.18l-427.58 0 0 -0.2c-21.43,-0.01 -42.81,-8.56 -58.56,-25.49 -30.08,-32.33 -28.26,-82.97 4.07,-113.05l261.81 -243.38 -222.88 0z"/>
  </g>
 </g>
</svg>
