<?xml version="1.0" encoding="UTF-8"?>
<!DOCTYPE svg PUBLIC "-//W3C//DTD SVG 1.1//EN" "http://www.w3.org/Graphics/SVG/1.1/DTD/svg11.dtd">
<!-- Creator: CorelDRAW 2019 (64-Bit) -->
<svg xmlns="http://www.w3.org/2000/svg" xml:space="preserve" width="52.1096mm" height="52.1096mm" version="1.1" style="shape-rendering:geometricPrecision; text-rendering:geometricPrecision; image-rendering:optimizeQuality; fill-rule:evenodd; clip-rule:evenodd"
viewBox="0 0 5207.5 5207.5"
 xmlns:xlink="http://www.w3.org/1999/xlink"
 xmlns:xodm="http://www.corel.com/coreldraw/odm/2003">
 <defs>
  <style type="text/css">
   <![CDATA[
    .fil0 {fill:black}
    .fil1 {fill:#34DEC4}
    .fil2 {fill:white}
   ]]>
  </style>
 </defs>
 <g id="Слой_x0020_1">
  <metadata id="CorelCorpID_0Corel-Layer"/>
  <g id="_3115913031568">
   <circle class="fil0" cx="2603.75" cy="2603.75" r="2603.75"/>
   <g>
    <rect class="fil1" x="1486.31" y="3024.95" width="471.3" height="192.47"/>
    <rect class="fil1" x="1328.18" y="1319.87" width="2827.82" height="1899.37"/>
    <rect class="fil2" x="1330.9" y="3047.23" width="2822.36" height="177.6"/>
    <polygon class="fil2" points="2127.93,3532.71 2539.94,3532.71 2539.94,3358.14 2966.83,3358.14 2966.83,3532.71 3378.83,3532.71 3378.83,3718.33 2127.93,3718.33 "/>
    <rect class="fil0" x="2357.15" y="1834" width="167.79" height="172.73"/>
    <rect class="fil0" x="2959.23" y="1834" width="167.79" height="172.73"/>
    <rect class="fil0" x="2241.17" y="2233.73" width="167.79" height="172.73"/>
    <rect class="fil0" x="2394.16" y="2381.8" width="167.79" height="172.73"/>
    <rect class="fil0" x="2557.01" y="2536.63" width="380" height="162.86"/>
    <rect class="fil0" x="3075.21" y="2228.8" width="167.79" height="172.73"/>
    <rect class="fil0" x="2922.22" y="2376.86" width="167.79" height="172.73"/>
    <polygon class="fil0" points="1592.21,2418.25 1720.43,2418.25 1720.43,3576.35 1557.67,3576.35 1557.67,2421.21 1424.41,2421.21 1424.41,2264.51 1592.21,2264.51 "/>
    <rect class="fil2" x="934.59" y="2264.5" width="491.04" height="157.92"/>
    <rect class="fil2" x="934.59" y="3573.54" width="491.04" height="157.92"/>
    <rect class="fil1" x="774.19" y="2421.25" width="792.08" height="1157.26"/>
    <path class="fil0" d="M935.85 2693.76l167.79 0 0 172.73 -167.79 0 0 -172.73zm-0.58 315.45l167.8 0 0 152.99 135.72 0 0 -152.99 167.79 0 0 172.74 -152.99 0 0 152.98 -167.79 0 0 -152.98 -150.53 0 0 -172.74zm311.48 -315.45l167.79 0 0 172.73 -167.79 0 0 -172.73z"/>
   </g>
  </g>
 </g>
</svg>
