<svg id="Слой_1" data-name="Слой 1" xmlns="http://www.w3.org/2000/svg" viewBox="0 0 300 300"><defs><style>.cls-1{fill:#29e2c3;}.cls-2{fill:#fff;}.cls-3{fill:#fcfcfc;}</style></defs><title>Advantage-slide3</title><circle class="cls-1" cx="150" cy="150" r="150"/><path class="cls-2" d="M248.74,188.29a7.29,7.29,0,0,0-7.43-6.23q-15.08,0-30.14,0h-1V87.88c0-7.16,0-14.32,0-21.49A11.14,11.14,0,0,0,199,55.22c-6.14,0-12.28,0-18.43,0q-39,0-78,0a11.58,11.58,0,0,0-5.42,1.12A11,11,0,0,0,90.8,66.73V182.05h-1q-14.92,0-29.84,0a8,8,0,0,0-4.54,1.23,7.54,7.54,0,0,0-.62,12q19.49,17.2,38.88,34.52l51.57,45.85a7.43,7.43,0,0,0,10.39,0q4.67-4.12,9.31-8.27l69.2-61.51q6-5.31,11.93-10.6A7.24,7.24,0,0,0,248.74,188.29Zm-98.25,82L59.58,189.51H94.09c2.66,0,4.17-1.5,4.17-4.15V66.79a3.76,3.76,0,0,1,4.12-4.12h96.23a3.77,3.77,0,0,1,4.11,4.14V185.43a3.75,3.75,0,0,0,3,4,6,6,0,0,0,1.12.07H241.4Z"/><path class="cls-3" d="M139,189.65c0,.4-.06.7-.06,1q-.12,15.71-.19,31.4a2.06,2.06,0,0,1-1,1.89,3.55,3.55,0,0,1-5-.82,2.18,2.18,0,0,1-.21-1.15q0-15.45,0-30.89v-1.42h-1.29c-7.5,0-15,0-22.49,0-1.62,0-2.25-1.25-2.94-2.28a2.53,2.53,0,0,1,.33-2.85,2.56,2.56,0,0,1,1.71-.89c2.76-.2,5.53-.35,8.29-.38,5.06-.05,10.13,0,15.19,0h1.14V165.78h-1.25c-7.59-.06-15.19-.15-22.78-.14-1.51,0-2-.88-2.61-2a2.26,2.26,0,0,1,.46-2.76,3.75,3.75,0,0,1,3.24-1.56c7.23.09,14.45,0,21.68,0h1.32V103.61a3,3,0,0,1,3.15-3.14c7.63.1,15.25.17,22.88.31,4.38.08,8.77.12,13.07,1.19,14.49,3.63,21,14.88,22.4,25.22,1.35,9.92-.72,19-7,26.92-4.41,5.58-10.42,8.53-17.21,10.06-6.6,1.49-13.32,1.55-20,1.61-3.58,0-7.15,0-10.81,0v17.48h1.13l23.6.13h.2c1.55,0,2.95.28,3.48,2s-.33,2.95-1.54,4a2,2,0,0,1-1.21.29q-12.21,0-24.41,0Zm0-30.3c.35,0,.61.05.88.05,3.88,0,7.76,0,11.64,0,5.34,0,10.68,0,15.94-1.09,6.3-1.28,12-3.82,15.67-9.34,6-9,6.71-18.63,2.37-28.49-2.79-6.35-7.78-10.28-14.52-12a44,44,0,0,0-10.4-1.38c-6.89-.08-13.77-.13-20.66-.19-.29,0-.59,0-.92.06Z"/><circle class="cls-3" cx="79.21" cy="169.82" r="6.71"/><circle class="cls-3" cx="79.21" cy="149.94" r="6.71"/><circle class="cls-3" cx="79.21" cy="129.21" r="6.71"/><circle class="cls-3" cx="60.76" cy="169.82" r="6.71"/><circle class="cls-3" cx="60.76" cy="149.94" r="6.71"/><circle class="cls-3" cx="79.21" cy="108.48" r="6.71"/><circle class="cls-3" cx="221.61" cy="169.82" r="6.71"/><circle class="cls-3" cx="221.61" cy="149.94" r="6.71"/><circle class="cls-3" cx="221.61" cy="129.21" r="6.71"/><circle class="cls-3" cx="240.06" cy="169.82" r="6.71"/><circle class="cls-3" cx="240.06" cy="149.94" r="6.71"/><circle class="cls-3" cx="221.61" cy="108.48" r="6.71"/><circle class="cls-3" cx="113.54" cy="45.25" r="6.71"/><circle class="cls-3" cx="130.87" cy="45.25" r="6.71"/><circle class="cls-3" cx="150" cy="45.25" r="6.71"/><circle class="cls-3" cx="187.43" cy="45.25" r="6.71"/><circle class="cls-3" cx="170.1" cy="45.25" r="6.71"/><circle class="cls-3" cx="150" cy="28.59" r="6.71"/></svg>