<?xml version="1.0" encoding="UTF-8"?>
<!DOCTYPE svg PUBLIC "-//W3C//DTD SVG 1.1//EN" "http://www.w3.org/Graphics/SVG/1.1/DTD/svg11.dtd">
<!-- Creator: CorelDRAW 2019 (64-Bit) -->
<svg xmlns="http://www.w3.org/2000/svg" xml:space="preserve" width="52.1096mm" height="52.1096mm" version="1.1" style="shape-rendering:geometricPrecision; text-rendering:geometricPrecision; image-rendering:optimizeQuality; fill-rule:evenodd; clip-rule:evenodd"
viewBox="0 0 5207.5 5207.5"
 xmlns:xlink="http://www.w3.org/1999/xlink"
 xmlns:xodm="http://www.corel.com/coreldraw/odm/2003">
 <defs>
  <style type="text/css">
   <![CDATA[
    .fil0 {fill:black}
    .fil1 {fill:#34DEC4}
    .fil2 {fill:white}
   ]]>
  </style>
 </defs>
 <g id="Слой_x0020_1">
  <metadata id="CorelCorpID_0Corel-Layer"/>
  <g id="_3115741619552">
   <circle class="fil0" cx="2603.75" cy="2603.75" r="2603.75"/>
   <g>
    <rect class="fil1" x="1370.22" y="2618.15" width="185.09" height="196.11"/>
    <rect class="fil1" x="1707.34" y="3849.85" width="726.73" height="196.11"/>
    <rect class="fil1" x="2410.23" y="3671.38" width="185.09" height="196.11"/>
    <rect class="fil1" x="1197.27" y="2785.62" width="185.09" height="719.52"/>
    <rect class="fil1" x="1370.22" y="3492.9" width="185.09" height="196.11"/>
    <rect class="fil1" x="1537.68" y="3675.78" width="185.09" height="196.11"/>
    <polygon class="fil2" points="2257.33,3314.29 2257.33,3488.35 2984.06,3488.35 2984.06,3309.88 3145.31,3309.88 3145.31,3136.99 2602.25,3136.99 2602.25,2952.93 2432.59,2952.93 2432.59,2770.04 2265.14,2770.04 2265.14,2586.15 2082.19,2586.15 2082.19,2060.53 1920.22,2060.53 1920.22,2227.99 1737.27,2227.99 1737.27,2947.51 1920.22,2947.51 1920.22,3131.4 2087.67,3131.4 2087.67,3314.29 "/>
    <g>
     <polygon class="fil1" points="2787.34,2776.66 2787.34,2950.72 3514.07,2950.72 3514.07,2772.25 3675.32,2772.25 3675.32,2589.36 3842.78,2589.36 3842.78,2409.88 4010.24,2409.88 4010.24,1690.36 3842.78,1690.36 3842.78,1522.9 3675.32,1522.9 3675.32,1340.01 3514.07,1340.01 3514.07,1161.54 2787.34,1161.54 2787.34,1340.01 2617.68,1340.01 2617.68,1522.9 2450.22,1522.9 2450.22,1690.36 2277.27,1690.36 2277.27,2409.88 2450.22,2409.88 2450.22,2593.77 2617.68,2593.77 2617.68,2776.66 "/>
     <polygon class="fil0" points="2628.68,1901.9 2813.77,1901.9 2813.77,2078.17 2981.23,2078.17 2981.23,2267.66 3142.07,2267.66 3142.07,2082.58 3311.74,2082.58 3311.74,1897.49 3474.79,1897.49 3474.79,1716.81 3659.88,1716.81 3659.88,1912.92 3496.83,1912.92 3496.83,2093.6 3327.16,2093.6 3327.16,2278.69 3153.1,2278.69 3153.1,2463.77 2968.01,2463.77 2968.01,2274.28 2796.14,2274.28 2796.14,2098.01 2628.68,2098.01 "/>
    </g>
   </g>
  </g>
 </g>
</svg>
