<svg id="Слой_1" data-name="Слой 1" xmlns="http://www.w3.org/2000/svg" viewBox="0 0 133.25 27.32"><defs><style>.cls-1{fill:#fff;}</style></defs><title>logo15</title><polygon class="cls-1" points="22.31 0 20.01 0 17.76 0 11.48 20.73 15.14 20.73 20.03 4.47 24.94 20.68 28.53 20.68 22.31 0"/><polygon class="cls-1" points="18.22 12.57 18.21 15.88 32.83 15.88 26.72 27.32 41.97 27.32 41.96 24 32.35 24 38.52 12.57 18.22 12.57"/><polygon class="cls-1" points="4.28 13.73 10.35 6.32 7.79 4.22 0 13.73 7.79 23.24 10.36 21.14 4.28 13.73"/><polygon class="cls-1" points="42.46 4.15 39.9 6.25 45.96 13.67 39.89 21.07 42.45 23.18 50.24 13.67 42.46 4.15"/><path class="cls-1" d="M59.85,8.65H57l-.49,1.59h-2.2l3.13-8.53H59.4l3.16,8.53H60.35ZM57.52,7.06h1.84l-.92-3Z" transform="translate(-0.81 -0.27)"/><path class="cls-1" d="M65.17,10.24h-2v-9h2Z" transform="translate(-0.81 -0.27)"/><path class="cls-1" d="M69.45,10.36a3.26,3.26,0,0,1-2.36-.87,3,3,0,0,1-.9-2.27V7.06a3.92,3.92,0,0,1,.36-1.72,2.66,2.66,0,0,1,1-1.15,3.19,3.19,0,0,1,1.64-.41,2.76,2.76,0,0,1,2.11.83,3.27,3.27,0,0,1,.77,2.32v.76H68.2a1.39,1.39,0,0,0,.46.84,1.41,1.41,0,0,0,.93.31,1.77,1.77,0,0,0,1.46-.66L72,9.25a2.46,2.46,0,0,1-1,.81A3.57,3.57,0,0,1,69.45,10.36Zm-.22-5c-.58,0-.92.38-1,1.15h2V6.3A1,1,0,0,0,70,5.57,1,1,0,0,0,69.23,5.31Z" transform="translate(-0.81 -0.27)"/><path class="cls-1" d="M75.46,7.88l-.55.56v1.8h-2v-9h2V6l.2-.27L76.59,3.9H79L76.74,6.51l2.37,3.73H76.85Z" transform="translate(-0.81 -0.27)"/><path class="cls-1" d="M82.8,8.46a.45.45,0,0,0-.26-.4,3.71,3.71,0,0,0-1-.32,4.47,4.47,0,0,1-1.21-.43,2.06,2.06,0,0,1-.74-.65,1.58,1.58,0,0,1-.25-.87,1.76,1.76,0,0,1,.72-1.44,3,3,0,0,1,1.89-.57,3.26,3.26,0,0,1,2,.57,1.79,1.79,0,0,1,.77,1.5h-2c0-.51-.27-.76-.81-.76a.78.78,0,0,0-.52.17.53.53,0,0,0-.21.43.51.51,0,0,0,.26.43,2.35,2.35,0,0,0,.82.27,6.47,6.47,0,0,1,1,.25A1.79,1.79,0,0,1,84.7,8.4a1.64,1.64,0,0,1-.77,1.41,3.32,3.32,0,0,1-2,.55,3.51,3.51,0,0,1-1.45-.29,2.52,2.52,0,0,1-1-.8,1.81,1.81,0,0,1-.36-1.06H81a.75.75,0,0,0,.29.64,1.25,1.25,0,0,0,.72.2,1,1,0,0,0,.61-.16A.54.54,0,0,0,82.8,8.46Z" transform="translate(-0.81 -0.27)"/><path class="cls-1" d="M88.69,10.36a3.26,3.26,0,0,1-2.36-.87,3,3,0,0,1-.9-2.27V7.06a3.92,3.92,0,0,1,.36-1.72,2.66,2.66,0,0,1,1-1.15,3.19,3.19,0,0,1,1.64-.41,2.75,2.75,0,0,1,2.11.83,3.27,3.27,0,0,1,.78,2.32v.76H87.44a1.45,1.45,0,0,0,.46.84,1.41,1.41,0,0,0,.93.31,1.77,1.77,0,0,0,1.46-.66l.91,1.07a2.56,2.56,0,0,1-1,.81A3.57,3.57,0,0,1,88.69,10.36Zm-.22-5c-.58,0-.92.38-1,1.15h2V6.3a1,1,0,0,0-.24-.73A1,1,0,0,0,88.47,5.31Z" transform="translate(-0.81 -0.27)"/><path class="cls-1" d="M94.62,7.48l1-3.58h2.12L95.2,11.3l-.11.27a2,2,0,0,1-1.94,1.23,3.5,3.5,0,0,1-.82-.11V11.28h.26a1.37,1.37,0,0,0,.64-.12.77.77,0,0,0,.32-.43l.16-.42L91.51,3.9h2.11Z" transform="translate(-0.81 -0.27)"/><path class="cls-1" d="M57.31,23.06h4.08v1.58H54.75V23.56l4.06-5.86H54.72V16.11h6.63v1.06Z" transform="translate(-0.81 -0.27)"/><path class="cls-1" d="M65.8,24.64a2.5,2.5,0,0,1-.19-.57,1.82,1.82,0,0,1-1.52.69,2.24,2.24,0,0,1-1.52-.54,1.73,1.73,0,0,1-.63-1.37,1.76,1.76,0,0,1,.76-1.55,3.83,3.83,0,0,1,2.22-.53h.61v-.34c0-.58-.26-.87-.76-.87a.61.61,0,0,0-.7.69h-2a1.75,1.75,0,0,1,.79-1.49,3.28,3.28,0,0,1,2-.58,2.87,2.87,0,0,1,1.92.6,2.06,2.06,0,0,1,.72,1.62v2.81a2.67,2.67,0,0,0,.27,1.33v.1Zm-1.23-1.29a1.07,1.07,0,0,0,.61-.16,1,1,0,0,0,.35-.35v-1H65c-.69,0-1,.31-1,.93a.59.59,0,0,0,.18.44A.67.67,0,0,0,64.57,23.35Z" transform="translate(-0.81 -0.27)"/><path class="cls-1" d="M72.43,20.09,71.78,20a1.16,1.16,0,0,0-1.19.59v4h-2V18.3h1.86l.06.82a1.54,1.54,0,0,1,1.39-.94,2.23,2.23,0,0,1,.55.07Z" transform="translate(-0.81 -0.27)"/><path class="cls-1" d="M76.54,24.64a2.5,2.5,0,0,1-.19-.57,1.82,1.82,0,0,1-1.52.69,2.24,2.24,0,0,1-1.52-.54,1.73,1.73,0,0,1-.63-1.37,1.76,1.76,0,0,1,.76-1.55,3.83,3.83,0,0,1,2.22-.53h.61v-.34c0-.58-.26-.87-.76-.87a.61.61,0,0,0-.7.69h-2a1.75,1.75,0,0,1,.79-1.49,3.28,3.28,0,0,1,2-.58,2.87,2.87,0,0,1,1.92.6,2,2,0,0,1,.72,1.62v2.81a2.67,2.67,0,0,0,.27,1.33v.1Zm-1.23-1.29a1.07,1.07,0,0,0,.61-.16,1,1,0,0,0,.35-.35v-1h-.58c-.69,0-1,.31-1,.93a.59.59,0,0,0,.18.44A.67.67,0,0,0,75.31,23.35Z" transform="translate(-0.81 -0.27)"/><path class="cls-1" d="M81.78,22.29l1-4h2.08l-2.07,6.34h-2L78.71,18.3H80.8Z" transform="translate(-0.81 -0.27)"/><path class="cls-1" d="M87.26,18.3l.07.75a2.14,2.14,0,0,1,1.81-.87,1.8,1.8,0,0,1,1.48.6,2.82,2.82,0,0,1,.51,1.78v4.08h-2v-4a1.07,1.07,0,0,0-.2-.71.89.89,0,0,0-.7-.22.93.93,0,0,0-.86.46v4.47h-2V18.3Z" transform="translate(-0.81 -0.27)"/><path class="cls-1" d="M94.75,21.88l1.06-3.58h2.11l-2.58,7.4-.11.27a2,2,0,0,1-2,1.23,2.94,2.94,0,0,1-.81-.12v-1.4h.26a1.36,1.36,0,0,0,.63-.12.74.74,0,0,0,.33-.43l.15-.42-2.2-6.41h2.11Z" transform="translate(-0.81 -0.27)"/><path class="cls-1" d="M101.92,24.64a2.5,2.5,0,0,1-.19-.57,1.82,1.82,0,0,1-1.52.69,2.27,2.27,0,0,1-1.53-.54,1.9,1.9,0,0,1,.14-2.92,3.82,3.82,0,0,1,2.21-.53h.61v-.34q0-.87-.75-.87a.62.62,0,0,0-.71.69h-2A1.77,1.77,0,0,1,99,18.76a3.31,3.31,0,0,1,2-.58,2.84,2.84,0,0,1,1.91.6,2,2,0,0,1,.72,1.62v2.81a2.91,2.91,0,0,0,.27,1.33v.1Zm-1.24-1.29a1,1,0,0,0,.61-.16.9.9,0,0,0,.35-.35v-1h-.57c-.69,0-1,.31-1,.93a.59.59,0,0,0,.18.44A.66.66,0,0,0,100.68,23.35Z" transform="translate(-0.81 -0.27)"/><path class="cls-1" d="M107,16.73V18.3h1v1.37h-1v2.9a.71.71,0,0,0,.13.5c.08.1.25.14.51.14a3.48,3.48,0,0,0,.49,0v1.41a3.8,3.8,0,0,1-1.12.17,2,2,0,0,1-1.5-.48,2,2,0,0,1-.49-1.46V19.67h-.81V18.3H105V16.73Z" transform="translate(-0.81 -0.27)"/><path class="cls-1" d="M110.65,18.3l.06.75a2.14,2.14,0,0,1,1.81-.87,1.79,1.79,0,0,1,1.48.6,2.76,2.76,0,0,1,.51,1.78v4.08h-2v-4a1.08,1.08,0,0,0-.19-.71.91.91,0,0,0-.71-.22.94.94,0,0,0-.86.46v4.47h-2V18.3Z" transform="translate(-0.81 -0.27)"/><path class="cls-1" d="M118.14,21.88l1-3.58h2.12l-2.59,7.4-.11.27a2,2,0,0,1-1.94,1.23,3.07,3.07,0,0,1-.82-.12v-1.4h.26a1.37,1.37,0,0,0,.64-.12.77.77,0,0,0,.32-.43l.16-.42L115,18.3h2.11Z" transform="translate(-0.81 -0.27)"/><path class="cls-1" d="M124.37,22.28l-.56.56v1.8h-2v-9h2v4.78l.2-.27,1.49-1.85h2.36l-2.22,2.61L128,24.64h-2.26Z" transform="translate(-0.81 -0.27)"/><path class="cls-1" d="M130.31,19a2,2,0,0,1,1.62-.8,1.94,1.94,0,0,1,1.58.63,2.76,2.76,0,0,1,.55,1.83v4h-2V20.69a1.07,1.07,0,0,0-.21-.74.87.87,0,0,0-.7-.24,1,1,0,0,0-.86.38v4.55h-2v-9h2Z" transform="translate(-0.81 -0.27)"/></svg>