<svg id="Слой_1" data-name="Слой 1" xmlns="http://www.w3.org/2000/svg" viewBox="0 0 202.99 54.69"><defs><style>.cls-1{fill:#fff;}.cls-2{fill:#020202;}</style></defs><title>logo17</title><circle class="cls-1" cx="27.35" cy="27.35" r="27.35"/><polygon points="24.59 13.61 22.3 13.61 20.05 13.61 9.58 48.15 10.87 49.19 11.69 49.78 12.53 50.34 22.32 18.08 27.22 34.28 30.82 34.28 24.59 13.61"/><polygon class="cls-2" points="20.5 26.17 20.5 29.48 35.11 29.49 29.01 40.92 51.1 40.91 51.57 40.06 51.93 39.33 52.37 38.41 52.68 37.66 34.63 37.61 40.81 26.17 20.5 26.17"/><polygon points="6.57 27.34 12.63 19.92 10.07 17.82 2.29 27.34 10.08 36.85 12.64 34.75 6.57 27.34"/><polygon points="44.74 17.76 42.18 19.86 48.25 27.27 42.17 34.68 44.73 36.78 52.53 27.27 44.74 17.76"/><path class="cls-1" d="M75.12,20H70.19l-.86,2.79H65.48L71,7.81h3.38l5.52,14.93H76Zm-4.07-2.78h3.21L72.65,12Z" transform="translate(-2 -0.23)"/><path class="cls-1" d="M84.43,22.74H81V7h3.46Z" transform="translate(-2 -0.23)"/><path class="cls-1" d="M91.93,23a5.68,5.68,0,0,1-4.13-1.53,5.21,5.21,0,0,1-1.58-4v-.29a6.82,6.82,0,0,1,.63-3,4.62,4.62,0,0,1,1.84-2,5.6,5.6,0,0,1,2.87-.71,4.82,4.82,0,0,1,3.69,1.45,5.73,5.73,0,0,1,1.36,4.05v1.34H89.74a2.49,2.49,0,0,0,.81,1.47,2.41,2.41,0,0,0,1.62.53,3.1,3.1,0,0,0,2.56-1.15L96.31,21a4.43,4.43,0,0,1-1.83,1.42A6.23,6.23,0,0,1,91.93,23Zm-.39-8.84q-1.52,0-1.8,2h3.48v-.27a1.53,1.53,0,0,0-1.68-1.74Z" transform="translate(-2 -0.23)"/><path class="cls-1" d="M102.45,18.61l-1,1v3.16H98V7h3.46v8.37l.35-.46,2.6-3.24h4.14l-3.88,4.56,4.14,6.53h-4Z" transform="translate(-2 -0.23)"/><path class="cls-1" d="M115.29,19.62a.78.78,0,0,0-.46-.7,6.79,6.79,0,0,0-1.76-.56,8,8,0,0,1-2.13-.75,3.56,3.56,0,0,1-1.28-1.13,2.77,2.77,0,0,1-.44-1.53,3.07,3.07,0,0,1,1.26-2.52,5.19,5.19,0,0,1,3.3-1,5.71,5.71,0,0,1,3.53,1,3.09,3.09,0,0,1,1.33,2.61h-3.46c0-.89-.47-1.33-1.41-1.33a1.4,1.4,0,0,0-.91.3.92.92,0,0,0-.37.75.86.86,0,0,0,.45.75,4.22,4.22,0,0,0,1.44.47,12.14,12.14,0,0,1,1.74.45,3.15,3.15,0,0,1,2.5,3.08A2.9,2.9,0,0,1,117.27,22a6.67,6.67,0,0,1-6,.44A4.13,4.13,0,0,1,109.5,21a3.16,3.16,0,0,1-.63-1.86h3.23a1.36,1.36,0,0,0,.51,1.13,2.17,2.17,0,0,0,1.27.35,1.67,1.67,0,0,0,1.06-.29A.93.93,0,0,0,115.29,19.62Z" transform="translate(-2 -0.23)"/><path class="cls-1" d="M125.6,23a5.68,5.68,0,0,1-4.13-1.53,5.25,5.25,0,0,1-1.58-4v-.29a6.82,6.82,0,0,1,.63-3,4.68,4.68,0,0,1,1.84-2,5.64,5.64,0,0,1,2.88-.71,4.85,4.85,0,0,1,3.69,1.45,5.73,5.73,0,0,1,1.35,4.05v1.34h-6.87a2.49,2.49,0,0,0,.81,1.47,2.45,2.45,0,0,0,1.62.53,3.09,3.09,0,0,0,2.56-1.15L130,21a4.43,4.43,0,0,1-1.83,1.42A6.23,6.23,0,0,1,125.6,23Zm-.39-8.84q-1.51,0-1.8,2h3.49v-.27a1.76,1.76,0,0,0-.42-1.29A1.71,1.71,0,0,0,125.21,14.11Z" transform="translate(-2 -0.23)"/><path class="cls-1" d="M136,17.9l1.85-6.25h3.7L137,24.6l-.2.47a3.44,3.44,0,0,1-3.4,2.15A5.72,5.72,0,0,1,132,27V24.56h.45a2.4,2.4,0,0,0,1.12-.21,1.3,1.3,0,0,0,.56-.76l.28-.74-3.85-11.2h3.69Z" transform="translate(-2 -0.23)"/><path class="cls-1" d="M70.68,45.17h7.14v2.77H66.19V46l7.12-10.25H66.15V33h11.6v1.85Z" transform="translate(-2 -0.23)"/><path class="cls-1" d="M85.54,47.94a4.19,4.19,0,0,1-.33-1,3.2,3.2,0,0,1-2.66,1.2,4,4,0,0,1-2.67-.95,3,3,0,0,1-1.1-2.39,3.09,3.09,0,0,1,1.34-2.72A6.74,6.74,0,0,1,84,41.16h1.07v-.58c0-1-.44-1.54-1.32-1.54a1.08,1.08,0,0,0-1.23,1.22H79.05a3.11,3.11,0,0,1,1.37-2.61,5.75,5.75,0,0,1,3.49-1,5.08,5.08,0,0,1,3.36,1,3.6,3.6,0,0,1,1.26,2.84v4.91A5,5,0,0,0,89,47.77v.17Zm-2.16-2.25a2,2,0,0,0,1.07-.28,1.73,1.73,0,0,0,.61-.63V43h-1c-1.21,0-1.81.54-1.81,1.62a1,1,0,0,0,.32.76A1.13,1.13,0,0,0,83.38,45.69Z" transform="translate(-2 -0.23)"/><path class="cls-1" d="M97.15,40,96,39.89c-1.09,0-1.78.34-2.09,1v7H90.46V36.85H93.7l.12,1.42a2.68,2.68,0,0,1,2.43-1.63,3.05,3.05,0,0,1,1,.13Z" transform="translate(-2 -0.23)"/><path class="cls-1" d="M104.34,47.94a3.44,3.44,0,0,1-.33-1,3.23,3.23,0,0,1-2.67,1.2,3.94,3.94,0,0,1-2.66-.95,3,3,0,0,1-1.1-2.39,3.08,3.08,0,0,1,1.33-2.72,6.76,6.76,0,0,1,3.88-.93h1.06v-.58c0-1-.44-1.54-1.32-1.54a1.08,1.08,0,0,0-1.23,1.22H97.85a3.08,3.08,0,0,1,1.37-2.61,5.73,5.73,0,0,1,3.49-1,5,5,0,0,1,3.35,1,3.6,3.6,0,0,1,1.26,2.84v4.91a5,5,0,0,0,.47,2.34v.17Zm-2.17-2.25a2,2,0,0,0,1.08-.28,1.7,1.7,0,0,0,.6-.63V43h-1q-1.8,0-1.8,1.62a1,1,0,0,0,.31.76A1.16,1.16,0,0,0,102.17,45.69Z" transform="translate(-2 -0.23)"/><path class="cls-1" d="M113.5,43.83l1.76-7h3.64l-3.62,11.09h-3.53l-3.62-11.09h3.65Z" transform="translate(-2 -0.23)"/><path class="cls-1" d="M123.1,36.85l.12,1.3a3.74,3.74,0,0,1,3.16-1.51,3.16,3.16,0,0,1,2.59,1,4.92,4.92,0,0,1,.89,3.11v7.15h-3.47v-7a1.93,1.93,0,0,0-.33-1.24,1.59,1.59,0,0,0-1.23-.39,1.66,1.66,0,0,0-1.51.8v7.83h-3.46V36.85Z" transform="translate(-2 -0.23)"/><path class="cls-1" d="M136.21,43.1l1.84-6.25h3.7L137.23,49.8l-.19.47a3.44,3.44,0,0,1-3.41,2.15,5.22,5.22,0,0,1-1.42-.2V49.76h.45a2.38,2.38,0,0,0,1.11-.21,1.24,1.24,0,0,0,.57-.76l.28-.74-3.86-11.2h3.69Z" transform="translate(-2 -0.23)"/><path class="cls-1" d="M148.75,47.94a4.19,4.19,0,0,1-.33-1,3.22,3.22,0,0,1-2.67,1.2,3.94,3.94,0,0,1-2.66-.95,3,3,0,0,1-1.1-2.39,3.08,3.08,0,0,1,1.33-2.72,6.76,6.76,0,0,1,3.88-.93h1.07v-.58c0-1-.44-1.54-1.33-1.54a1.08,1.08,0,0,0-1.23,1.22h-3.45a3.08,3.08,0,0,1,1.37-2.61,5.73,5.73,0,0,1,3.49-1,5,5,0,0,1,3.35,1,3.6,3.6,0,0,1,1.26,2.84v4.91a5.13,5.13,0,0,0,.47,2.34v.17Zm-2.17-2.25a2,2,0,0,0,1.08-.28,1.82,1.82,0,0,0,.61-.63V43h-1q-1.8,0-1.8,1.62a1,1,0,0,0,.31.76A1.16,1.16,0,0,0,146.58,45.69Z" transform="translate(-2 -0.23)"/><path class="cls-1" d="M157.67,34.09v2.76h1.82v2.4h-1.82v5.07a1.28,1.28,0,0,0,.22.87,1.2,1.2,0,0,0,.9.25,5.17,5.17,0,0,0,.86-.06v2.47a6.31,6.31,0,0,1-2,.3,3.64,3.64,0,0,1-2.64-.84,3.5,3.5,0,0,1-.85-2.56v-5.5H152.8v-2.4h1.41V34.09Z" transform="translate(-2 -0.23)"/><path class="cls-1" d="M164,36.85l.11,1.3a3.74,3.74,0,0,1,3.17-1.51,3.18,3.18,0,0,1,2.59,1,4.93,4.93,0,0,1,.88,3.11v7.15h-3.46v-7A1.93,1.93,0,0,0,167,39.7a1.59,1.59,0,0,0-1.23-.39,1.66,1.66,0,0,0-1.51.8v7.83h-3.45V36.85Z" transform="translate(-2 -0.23)"/><path class="cls-1" d="M177.13,43.1,179,36.85h3.7L178.16,49.8l-.2.47a3.42,3.42,0,0,1-3.4,2.15,5.29,5.29,0,0,1-1.43-.2V49.76h.45a2.4,2.4,0,0,0,1.12-.21,1.27,1.27,0,0,0,.56-.76l.28-.74-3.85-11.2h3.69Z" transform="translate(-2 -0.23)"/><path class="cls-1" d="M188,43.81l-1,1v3.16H183.6V32.18h3.46v8.37l.34-.46L190,36.85h4.14l-3.88,4.56,4.14,6.53h-4Z" transform="translate(-2 -0.23)"/><path class="cls-1" d="M198.44,38a3.79,3.79,0,0,1,5.6-.31,4.86,4.86,0,0,1,1,3.21v7h-3.47V41a2,2,0,0,0-.35-1.3,1.57,1.57,0,0,0-1.22-.41,1.63,1.63,0,0,0-1.51.68v7.95H195V32.19h3.46Z" transform="translate(-2 -0.23)"/></svg>