<svg id="Слой_1" data-name="Слой 1" xmlns="http://www.w3.org/2000/svg" viewBox="0 0 75.16 78.81"><defs><style>.cls-1{fill:#fff;}.cls-2{fill:#29e2c3;}</style></defs><title>logoicon2</title><path class="cls-1" d="M72.79,51.48A37.35,37.35,0,0,1,67.2,61.92,40.45,40.45,0,0,0,59,57.58a55.47,55.47,0,0,0,1.57-6.1H58.39A53.61,53.61,0,0,1,57,56.83a58.88,58.88,0,0,0-18.35-3.14V51.48H36.48v2.21a59,59,0,0,0-18.35,3.14c-.53-1.71-1-3.5-1.36-5.35H14.56a53.31,53.31,0,0,0,1.57,6.1A40.45,40.45,0,0,0,8,61.92,37.35,37.35,0,0,1,2.37,51.48H.07A39.48,39.48,0,0,0,6.2,63.24c.43.56.88,1.11,1.34,1.65a39.37,39.37,0,0,0,60.08,0c.46-.54.91-1.09,1.33-1.65a39.27,39.27,0,0,0,6.14-11.76ZM9.3,63.57a38.36,38.36,0,0,1,7.52-4C19.33,66.41,23,71.89,27.5,75.23A37.24,37.24,0,0,1,9.3,63.57Zm27.18,13C29,76,22.52,69,18.83,58.86a57.45,57.45,0,0,1,17.65-3Zm2.19-20.69a57.46,57.46,0,0,1,17.66,3C52.64,69,46.15,76,38.67,76.57Zm9,19.35c4.45-3.34,8.17-8.82,10.68-15.63a38.36,38.36,0,0,1,7.52,4A37.24,37.24,0,0,1,47.66,75.23Z" transform="translate(0 0)"/><path class="cls-1" d="M2.3,27.56A36.92,36.92,0,0,1,7.85,17a40.16,40.16,0,0,0,8.21,4.4,56.42,56.42,0,0,0-1.55,6.12h2.21a53.32,53.32,0,0,1,1.35-5.37,58.92,58.92,0,0,0,18.41,3.16v2.21h2.19V25.35a59,59,0,0,0,18.42-3.16,50.76,50.76,0,0,1,1.34,5.37h2.21a56.42,56.42,0,0,0-1.54-6.12A40.16,40.16,0,0,0,67.31,17a36.92,36.92,0,0,1,5.55,10.52h2.3a39.23,39.23,0,0,0-6.09-11.84c-.43-.57-.87-1.12-1.33-1.66a39.38,39.38,0,0,0-60.32,0c-.46.54-.9,1.09-1.33,1.66A39.23,39.23,0,0,0,0,27.56ZM66,15.38a37.43,37.43,0,0,1-7.58,4C55.91,12.51,52.16,7,47.66,3.58A37.33,37.33,0,0,1,66,15.38ZM38.67,2.24c7.53.62,14.06,7.64,17.74,17.91a57.32,57.32,0,0,1-17.74,3ZM36.48,23.16a57.31,57.31,0,0,1-17.73-3C22.43,9.88,29,2.86,36.48,2.24Zm-9-19.58C23,7,19.25,12.51,16.75,19.41a37.43,37.43,0,0,1-7.58-4A37.33,37.33,0,0,1,27.5,3.58Z" transform="translate(0 0)"/><polygon class="cls-2" points="41.73 29.75 41.73 31.94 55.2 31.94 48.3 44.85 55.66 44.85 55.66 42.62 51.97 42.64 58.89 29.75 41.73 29.75"/><polygon class="cls-2" points="41.79 36.32 41.79 34.13 51.41 34.18 44.59 47.1 55.72 47.06 55.72 49.29 40.87 49.24 47.76 36.39 41.79 36.32"/><polygon class="cls-2" points="30.57 29.75 28.66 29.75 28.66 29.75 20.89 29.75 20.89 31.95 28.66 31.95 32.01 49.29 34.31 49.29 30.57 29.75"/><path class="cls-2" d="M24.77,34.13H22.86L19.93,49.28h2.3l.93-4.74h3.22l.93,4.74h2.3L26.68,34.13Zm-1.18,8.22,1.18-6,1.18,6Z" transform="translate(0 0)"/><polygon class="cls-2" points="15.24 49.28 17.53 49.28 20.89 31.95 20.89 29.75 18.98 29.75 15.24 49.28"/></svg>