<svg id="Слой_1" data-name="Слой 1" xmlns="http://www.w3.org/2000/svg" viewBox="0 0 75.16 78.81"><defs><style>.cls-1{fill:#fff;}.cls-2{fill:#29e2c3;}</style></defs><title>logoicon</title><path class="cls-1" d="M72.79,51.48A36.84,36.84,0,0,1,67.2,61.92,40.63,40.63,0,0,0,59,57.58a55.47,55.47,0,0,0,1.56-6.1H58.39c-.38,1.85-.83,3.64-1.36,5.35a58.93,58.93,0,0,0-18.35-3.14V51.48H36.49v2.21a58.88,58.88,0,0,0-18.35,3.14,51,51,0,0,1-1.36-5.35H14.56a55.47,55.47,0,0,0,1.57,6.1A40.45,40.45,0,0,0,8,61.92,37.07,37.07,0,0,1,2.38,51.48H.08A39.25,39.25,0,0,0,6.21,63.24c.43.56.87,1.11,1.33,1.65a39.38,39.38,0,0,0,60.09,0c.45-.54.9-1.09,1.33-1.65a39.48,39.48,0,0,0,6.13-11.76ZM9.3,63.57a38.17,38.17,0,0,1,7.53-4c2.5,6.81,6.22,12.29,10.68,15.63A37.22,37.22,0,0,1,9.3,63.57Zm27.19,13C29,76,22.52,69,18.83,58.86a57.46,57.46,0,0,1,17.66-3Zm2.19-20.69a57.39,57.39,0,0,1,17.65,3C52.64,69,46.15,76,38.68,76.57Zm9,19.35c4.46-3.34,8.17-8.82,10.68-15.63a38.36,38.36,0,0,1,7.52,4A37.24,37.24,0,0,1,47.66,75.23Z" transform="translate(0 0)"/><path class="cls-1" d="M2.3,27.56A37.18,37.18,0,0,1,7.85,17a40.16,40.16,0,0,0,8.21,4.4,56.42,56.42,0,0,0-1.54,6.12h2.21a53.33,53.33,0,0,1,1.34-5.37,59,59,0,0,0,18.42,3.16v2.21h2.19V25.35a58.92,58.92,0,0,0,18.41-3.16,53.32,53.32,0,0,1,1.35,5.37h2.21a56.42,56.42,0,0,0-1.55-6.12A40.51,40.51,0,0,0,67.32,17a37.15,37.15,0,0,1,5.54,10.52h2.3a39,39,0,0,0-6.09-11.84c-.43-.57-.87-1.12-1.33-1.66a39.38,39.38,0,0,0-60.32,0c-.45.54-.9,1.09-1.33,1.66A39.23,39.23,0,0,0,0,27.56ZM66,15.38a37.43,37.43,0,0,1-7.58,4C55.91,12.51,52.16,7,47.66,3.58A37.24,37.24,0,0,1,66,15.38ZM38.68,2.24c7.52.62,14,7.64,17.73,17.91a57.26,57.26,0,0,1-17.73,3ZM36.49,23.16a57.21,57.21,0,0,1-17.73-3C22.43,9.88,29,2.86,36.49,2.24Zm-9-19.58C23,7,19.25,12.51,16.75,19.41a37.7,37.7,0,0,1-7.58-4A37.31,37.31,0,0,1,27.51,3.58Z" transform="translate(0 0)"/><path class="cls-2" d="M29.9,38a2.83,2.83,0,0,0-.16-1.11,3.54,3.54,0,0,0-1-1.47,4.49,4.49,0,0,0-2-1.1,6.84,6.84,0,0,0-1.51-.2,5.71,5.71,0,0,0-1.61.23,4.57,4.57,0,0,0-2,1.11,3.53,3.53,0,0,0-1.13,2.26V49.28h2.2V39.4a4,4,0,0,1,.6-1.93,2.58,2.58,0,0,1,1.08-.95,2.16,2.16,0,0,1,.86-.2,2.45,2.45,0,0,1,.81.17,2.26,2.26,0,0,1,1.1.95,3.24,3.24,0,0,1,.54,1.26,3.63,3.63,0,0,1,.08.94v9.64H29.9Z" transform="translate(0 0)"/><path class="cls-2" d="M33.89,35.2A9,9,0,0,0,33,33.57a9.26,9.26,0,0,0-1.34-1.49A9.63,9.63,0,0,0,30,30.9,9.93,9.93,0,0,0,27.7,30a10.62,10.62,0,0,0-2.64-.29,10.21,10.21,0,0,0-3.56.66,9.25,9.25,0,0,0-2.86,1.7,7.78,7.78,0,0,0-2.3,3.48,7.21,7.21,0,0,0-.29,1.66v12h2.19V49h0V38.59a7.41,7.41,0,0,1,.22-1.47A7.63,7.63,0,0,1,19,35.76,6.46,6.46,0,0,1,20.21,34a7.08,7.08,0,0,1,2.17-1.51,6.76,6.76,0,0,1,2.71-.58,6.63,6.63,0,0,1,2,.26A6.49,6.49,0,0,1,28.8,33a7.74,7.74,0,0,1,1.33,1,8.43,8.43,0,0,1,1,1.32,8.21,8.21,0,0,1,.65,1.45,5.65,5.65,0,0,1,.31,1.75V49.29H34.3V37.18A5.64,5.64,0,0,0,33.89,35.2Z" transform="translate(0 0)"/><rect class="cls-2" x="22.63" y="42.36" width="5.07" height="2.19"/><polygon class="cls-2" points="41.81 29.75 41.81 31.94 55.29 31.94 48.39 44.86 55.75 44.86 55.75 42.63 52.06 42.64 58.98 29.75 41.81 29.75"/><polygon class="cls-2" points="41.88 36.32 41.88 34.13 51.49 34.19 44.68 47.1 55.81 47.06 55.81 49.29 40.95 49.24 47.84 36.39 41.88 36.32"/></svg>