<svg id="Слой_1" data-name="Слой 1" xmlns="http://www.w3.org/2000/svg" viewBox="0 0 205.28 54.69"><defs><style>.cls-1{fill:#fff;}.cls-2{fill:#020202;}.cls-3{fill:#29e2c3;}</style></defs><title>logo16</title><path class="cls-1" d="M78.29,19.54H73.35l-.86,2.79H68.65L74.12,7.4h3.39L83,22.33H79.16Zm-4.07-2.78h3.2l-1.6-5.18Z" transform="translate(-2.87 -0.16)"/><path class="cls-1" d="M87.6,22.33H84.13V6.58H87.6Z" transform="translate(-2.87 -0.16)"/><path class="cls-1" d="M95.09,22.54A5.68,5.68,0,0,1,91,21a5.25,5.25,0,0,1-1.58-4v-.29a6.82,6.82,0,0,1,.63-3,4.68,4.68,0,0,1,1.84-2A5.63,5.63,0,0,1,94.72,11a4.82,4.82,0,0,1,3.7,1.45,5.73,5.73,0,0,1,1.35,4.05v1.34H92.9a2.49,2.49,0,0,0,.81,1.47,2.45,2.45,0,0,0,1.62.53,3.09,3.09,0,0,0,2.56-1.15l1.58,1.87A4.43,4.43,0,0,1,97.64,22,6.23,6.23,0,0,1,95.09,22.54ZM94.7,13.7q-1.52,0-1.8,2h3.48v-.27A1.53,1.53,0,0,0,94.7,13.7Z" transform="translate(-2.87 -0.16)"/><path class="cls-1" d="M105.61,18.2l-1,1v3.16h-3.46V6.57h3.46v8.37l.35-.46,2.6-3.24h4.15l-3.89,4.56L112,22.33h-4Z" transform="translate(-2.87 -0.16)"/><path class="cls-1" d="M118.45,19.21a.78.78,0,0,0-.46-.7,6.82,6.82,0,0,0-1.75-.56,8.06,8.06,0,0,1-2.14-.75,3.57,3.57,0,0,1-1.28-1.14,2.71,2.71,0,0,1-.44-1.52A3.07,3.07,0,0,1,113.64,12a5.19,5.19,0,0,1,3.3-1,5.77,5.77,0,0,1,3.53,1,3.12,3.12,0,0,1,1.33,2.62h-3.46c0-.89-.47-1.33-1.41-1.33a1.4,1.4,0,0,0-.91.3,1,1,0,0,0-.37.75.86.86,0,0,0,.45.75,4.22,4.22,0,0,0,1.44.47,13.73,13.73,0,0,1,1.74.44c1.67.58,2.5,1.61,2.5,3.09a2.91,2.91,0,0,1-1.34,2.47,5.91,5.91,0,0,1-3.5,1A6.07,6.07,0,0,1,114.4,22a4.25,4.25,0,0,1-1.74-1.39,3.16,3.16,0,0,1-.63-1.86h3.23a1.34,1.34,0,0,0,.52,1.12,2,2,0,0,0,1.26.36A1.67,1.67,0,0,0,118.1,20,.93.93,0,0,0,118.45,19.21Z" transform="translate(-2.87 -0.16)"/><path class="cls-1" d="M128.77,22.54A5.71,5.71,0,0,1,124.63,21a5.25,5.25,0,0,1-1.58-4v-.29a6.82,6.82,0,0,1,.64-3,4.62,4.62,0,0,1,1.84-2A5.58,5.58,0,0,1,128.4,11a4.78,4.78,0,0,1,3.69,1.45,5.73,5.73,0,0,1,1.35,4.05v1.34h-6.87a2.54,2.54,0,0,0,.81,1.47,2.45,2.45,0,0,0,1.62.53,3.11,3.11,0,0,0,2.57-1.15l1.57,1.87A4.43,4.43,0,0,1,131.31,22,6.15,6.15,0,0,1,128.77,22.54Zm-.39-8.84c-1,0-1.62.67-1.81,2h3.49v-.27a1.76,1.76,0,0,0-.42-1.29A1.7,1.7,0,0,0,128.38,13.7Z" transform="translate(-2.87 -0.16)"/><path class="cls-1" d="M139.13,17.49,141,11.24h3.7l-4.52,13-.2.47a3.43,3.43,0,0,1-3.4,2.15,5.72,5.72,0,0,1-1.43-.2V24.15h.45a2.38,2.38,0,0,0,1.12-.22,1.33,1.33,0,0,0,.57-.75l.27-.74-3.85-11.2h3.69Z" transform="translate(-2.87 -0.16)"/><path class="cls-1" d="M73.85,44.76H81v2.77H69.36v-1.9l7.11-10.25H69.31V32.6h11.6v1.85Z" transform="translate(-2.87 -0.16)"/><path class="cls-1" d="M88.71,47.53a3.55,3.55,0,0,1-.33-1,3.26,3.26,0,0,1-2.67,1.2,4,4,0,0,1-2.67-1A3,3,0,0,1,82,44.4a3.11,3.11,0,0,1,1.33-2.73,6.84,6.84,0,0,1,3.88-.92h1.06v-.58c0-1-.44-1.54-1.32-1.54a1.08,1.08,0,0,0-1.23,1.22H82.21a3.11,3.11,0,0,1,1.37-2.62,5.77,5.77,0,0,1,3.49-1,5.06,5.06,0,0,1,3.36,1,3.59,3.59,0,0,1,1.26,2.84V45a5,5,0,0,0,.47,2.34v.17Zm-2.17-2.26A2,2,0,0,0,87.61,45a1.73,1.73,0,0,0,.61-.63V42.6h-1c-1.21,0-1.81.54-1.81,1.62a1,1,0,0,0,.32.76A1.12,1.12,0,0,0,86.54,45.27Z" transform="translate(-2.87 -0.16)"/><path class="cls-1" d="M100.31,39.56l-1.14-.08a2,2,0,0,0-2.09,1v7H93.63V36.44h3.24L97,37.86a2.67,2.67,0,0,1,2.43-1.63,3.4,3.4,0,0,1,1,.12Z" transform="translate(-2.87 -0.16)"/><path class="cls-1" d="M107.5,47.53a4.35,4.35,0,0,1-.33-1,3.22,3.22,0,0,1-2.66,1.2,4,4,0,0,1-2.67-1,3,3,0,0,1-1.1-2.39,3.12,3.12,0,0,1,1.34-2.73,6.81,6.81,0,0,1,3.87-.92H107v-.58c0-1-.44-1.54-1.32-1.54a1.09,1.09,0,0,0-1.24,1.22H101a3.11,3.11,0,0,1,1.37-2.62,5.75,5.75,0,0,1,3.49-1,5,5,0,0,1,3.35,1,3.59,3.59,0,0,1,1.26,2.84V45a5,5,0,0,0,.48,2.34v.17Zm-2.16-2.26a2,2,0,0,0,1.07-.27,1.91,1.91,0,0,0,.61-.63V42.6h-1q-1.8,0-1.8,1.62a1,1,0,0,0,.32.76A1.12,1.12,0,0,0,105.34,45.27Z" transform="translate(-2.87 -0.16)"/><path class="cls-1" d="M116.67,43.42l1.75-7h3.64l-3.62,11.09h-3.53l-3.62-11.09h3.65Z" transform="translate(-2.87 -0.16)"/><path class="cls-1" d="M126.26,36.44l.12,1.3a3.74,3.74,0,0,1,3.17-1.51,3.16,3.16,0,0,1,2.58,1,4.86,4.86,0,0,1,.89,3.11v7.15h-3.46v-7a1.91,1.91,0,0,0-.34-1.24A1.59,1.59,0,0,0,128,38.9a1.64,1.64,0,0,0-1.51.8v7.83H123V36.44Z" transform="translate(-2.87 -0.16)"/><path class="cls-1" d="M139.37,42.69l1.84-6.25h3.71l-4.53,13-.19.47A3.44,3.44,0,0,1,136.79,52a5.65,5.65,0,0,1-1.42-.2V49.34h.45a2.33,2.33,0,0,0,1.11-.21,1.25,1.25,0,0,0,.57-.75l.28-.74-3.86-11.2h3.7Z" transform="translate(-2.87 -0.16)"/><path class="cls-1" d="M151.91,47.53a4.35,4.35,0,0,1-.33-1,3.22,3.22,0,0,1-2.66,1.2,4,4,0,0,1-2.67-1,3,3,0,0,1-1.1-2.39,3.12,3.12,0,0,1,1.34-2.73,6.81,6.81,0,0,1,3.87-.92h1.07v-.58c0-1-.44-1.54-1.32-1.54a1.08,1.08,0,0,0-1.23,1.22h-3.46a3.11,3.11,0,0,1,1.37-2.62,5.75,5.75,0,0,1,3.49-1,5,5,0,0,1,3.35,1,3.59,3.59,0,0,1,1.26,2.84V45a5,5,0,0,0,.48,2.34v.17Zm-2.16-2.26a2,2,0,0,0,1.07-.27,1.91,1.91,0,0,0,.61-.63V42.6h-1q-1.8,0-1.8,1.62a1,1,0,0,0,.32.76A1.12,1.12,0,0,0,149.75,45.27Z" transform="translate(-2.87 -0.16)"/><path class="cls-1" d="M160.83,33.68v2.76h1.83v2.39h-1.83v5.08a1.28,1.28,0,0,0,.23.87A1.17,1.17,0,0,0,162,45a5.17,5.17,0,0,0,.86-.06v2.47a6.31,6.31,0,0,1-1.95.3,3.56,3.56,0,0,1-2.63-.85,3.43,3.43,0,0,1-.85-2.55V38.83H156V36.44h1.42V33.68Z" transform="translate(-2.87 -0.16)"/><path class="cls-1" d="M167.19,36.44l.11,1.3a3.76,3.76,0,0,1,3.17-1.51,3.18,3.18,0,0,1,2.59,1,5,5,0,0,1,.89,3.11v7.15h-3.47v-7a1.86,1.86,0,0,0-.34-1.24,1.57,1.57,0,0,0-1.23-.39,1.64,1.64,0,0,0-1.51.8v7.83H164V36.44Z" transform="translate(-2.87 -0.16)"/><path class="cls-1" d="M180.29,42.69l1.85-6.25h3.7l-4.52,13-.2.47a3.43,3.43,0,0,1-3.4,2.15,5.72,5.72,0,0,1-1.43-.2V49.34h.45a2.4,2.4,0,0,0,1.12-.21,1.33,1.33,0,0,0,.57-.75l.27-.74-3.85-11.2h3.69Z" transform="translate(-2.87 -0.16)"/><path class="cls-1" d="M191.19,43.4l-1,1v3.16h-3.46V31.77h3.46v8.37l.35-.46,2.6-3.24h4.14L193.43,41l4.14,6.53h-4Z" transform="translate(-2.87 -0.16)"/><path class="cls-1" d="M201.6,37.63a3.79,3.79,0,0,1,5.6-.31,4.86,4.86,0,0,1,1,3.21v7h-3.46V40.61a2,2,0,0,0-.36-1.3,1.57,1.57,0,0,0-1.22-.41,1.66,1.66,0,0,0-1.51.67v8h-3.46V31.78h3.46Z" transform="translate(-2.87 -0.16)"/><circle class="cls-1" cx="27.35" cy="27.35" r="27.35"/><polygon points="24.59 13.61 22.3 13.61 20.05 13.61 13.77 34.34 17.42 34.34 22.32 18.08 27.22 34.28 30.82 34.28 24.59 13.61"/><polygon class="cls-2" points="20.5 26.17 20.5 29.48 35.11 29.49 29.01 40.92 44.26 40.92 44.24 37.61 34.63 37.61 40.81 26.17 20.5 26.17"/><polygon class="cls-3" points="6.57 27.34 12.63 19.92 10.07 17.82 2.29 27.34 10.08 36.85 12.64 34.75 6.57 27.34"/><polygon class="cls-3" points="44.74 17.76 42.18 19.86 48.25 27.27 42.17 34.68 44.73 36.78 52.53 27.27 44.74 17.76"/></svg>