<svg id="Слой_1" data-name="Слой 1" xmlns="http://www.w3.org/2000/svg" viewBox="0 0 91.12 49.96"><defs><style>.cls-1{fill:#383a66;}.cls-2{font-size:14.17px;fill:#fff;font-family:Orbitron-Black, Orbitron;font-weight:800;}</style></defs><title>logo</title><path class="cls-1" d="M0,30.94,26.5,17.3v3.94L4.17,32.43v.11L26.5,43.74v3.94L0,34Z"/><path class="cls-1" d="M40.93,50,58.12,5.27H62L44.76,50Z"/><path class="cls-1" d="M91.12,34.09,64.62,47.68V43.74l22.5-11.2v-.11L64.62,21.24V17.3l26.5,13.59Z"/><path class="cls-1" d="M58.24,5.08a6.63,6.63,0,0,0-.6-.57c-2.26-1.81-5.63-1.28-7.21-1l-.81.14c-1.44.25-1.83.38-2.68.54a8.69,8.69,0,0,1-3.73.21A11.48,11.48,0,0,1,42,4a10.28,10.28,0,0,1-1.36-.61A17.13,17.13,0,0,0,37.37,2,9.33,9.33,0,0,0,30.8,3.31a3.83,3.83,0,0,1-.69.37A4.88,4.88,0,0,1,27,3.7a8.25,8.25,0,0,1-3.44-2c-.43-.37-.34-.36-.6-.57A6.15,6.15,0,0,0,17.64.27c0,.06.34,0,.88.27A4.11,4.11,0,0,1,20.2,2c1.25,1.81,1.26,3,2.53,5a6.07,6.07,0,0,0,2.16,2.39,12.94,12.94,0,0,0,2.25.88c.79.25,1,.26,1.59.48a10.72,10.72,0,0,1,2,1,11.35,11.35,0,0,1,3.7,5,8.54,8.54,0,0,0,.61,1.15,8.2,8.2,0,0,0,1.74,1.88,10.65,10.65,0,0,0,2.79,1.62c.63.24.63.17,1.59.48a13.55,13.55,0,0,1,3.43,1.43,8.35,8.35,0,0,1,2.57,2.32c0,.05.73,1.13,1.22,1.72l.42.52h0l.49.49C49.52,28.45,53.22,18.66,58.24,5.08Z"/><text class="cls-2" transform="matrix(0.93, 0.36, -0.36, 0.93, 38.92, 16.83)">S</text></svg>