<svg id="Слой_1" data-name="Слой 1" xmlns="http://www.w3.org/2000/svg" viewBox="0 0 54.69 54.69"><defs><style>.cls-1{fill:#fff;}.cls-2{fill:#020202;}</style></defs><title>logo14</title><circle class="cls-1" cx="27.35" cy="27.35" r="27.35"/><polygon points="13.86 33.17 20.14 12.45 22.39 12.45 22.41 16.92 17.52 33.17 13.86 33.17"/><polygon points="30.91 33.12 27.32 33.12 22.41 16.92 22.39 12.45 24.69 12.45 30.91 33.12"/><polygon class="cls-2" points="20.6 25.01 20.59 28.32 35.21 28.32 29.11 39.76 44.36 39.76 44.34 36.45 34.73 36.45 40.9 25.01 20.6 25.01"/><polygon points="45.84 21.63 37.57 16.79 39.25 13.93 49.85 20.15 45.84 21.63"/><polygon points="45.84 21.63 42.72 30.69 45.85 31.77 49.85 20.15 45.84 21.63"/><polygon points="8.89 34.16 11.99 25.09 8.85 24.02 4.88 35.66 8.89 34.16"/><polygon points="8.89 34.16 17.17 38.98 15.5 41.84 4.88 35.66 8.89 34.16"/></svg>