<svg id="Слой_1" data-name="Слой 1" xmlns="http://www.w3.org/2000/svg" viewBox="0 0 446.25 88.72"><defs><style>.cls-1{fill:#6498ff;}.cls-2{fill:#67fecb;}.cls-3{fill:#ff00fe;}.cls-4{fill:#fff;}</style></defs><title>logo</title><polygon class="cls-1" points="207.77 4.46 207.77 17.75 254.03 17.55 207.77 70 207.77 83.94 274.93 83.68 274.93 69.62 228.48 69.62 275.13 17.55 275.13 4.46 207.77 4.46"/><polygon class="cls-2" points="79.64 0.33 79.64 17.45 18.48 44.85 79.64 72.07 79.64 88.72 0 53.23 0 36.71 79.64 0.33"/><polygon class="cls-2" points="366.61 0 366.61 17.13 427.77 44.52 366.61 71.74 366.61 88.4 446.25 52.9 446.25 36.39 366.61 0"/><polygon class="cls-3" points="325.06 4.46 341.13 4.46 317.32 83.68 300.87 83.68 325.06 4.46"/><path class="cls-4" d="M155.77,4.46h-16L104.42,83.68h16l7.48-16.51h40.26l7.74,16.51h16ZM134.35,53.23l13.42-31,13.94,31Z" transform="translate(0)"/></svg>