<?xml version="1.0" encoding="UTF-8"?>
<!DOCTYPE svg PUBLIC "-//W3C//DTD SVG 1.1//EN" "http://www.w3.org/Graphics/SVG/1.1/DTD/svg11.dtd">
<!-- Creator: CorelDRAW 2019 (64-Bit) -->
<svg xmlns="http://www.w3.org/2000/svg" xml:space="preserve" width="10.404mm" height="9.129mm" version="1.1" style="shape-rendering:geometricPrecision; text-rendering:geometricPrecision; image-rendering:optimizeQuality; fill-rule:evenodd; clip-rule:evenodd"
viewBox="0 0 1040.4 912.9"
 xmlns:xlink="http://www.w3.org/1999/xlink"
 xmlns:xodm="http://www.corel.com/coreldraw/odm/2003">
 <defs>
  <style type="text/css">
   <![CDATA[
    .fil0 {fill:#34DEC4}
    .fil1 {fill:black;fill-rule:nonzero}
   ]]>
  </style>
 </defs>
 <g id="Слой_x0020_1">
  <metadata id="CorelCorpID_0Corel-Layer"/>
  <g id="_2444812543424">
   <path class="fil0" d="M71.28 0.98l888.38 0c41.71,0 75.84,34.14 75.84,75.84l0 525.44c0,41.71 -34.13,75.84 -75.84,75.84l-888.38 0c-41.71,0 -75.84,-34.12 -75.84,-75.84l0 -525.44c0,-41.71 34.13,-75.84 75.84,-75.84z"/>
   <path class="fil0" d="M323.67 767.04l383.59 0 44.86 100.25c4.68,10.44 3.82,21.6 -2.41,31.2 -6.22,9.6 -16.05,14.94 -27.49,14.94l-413.51 0c-11.44,0 -21.27,-5.34 -27.49,-14.94 -6.22,-9.6 -7.08,-20.76 -2.41,-31.2l44.86 -100.25z"/>
   <path class="fil1" d="M698.41 287.92c14.07,-28.54 48.64,-40.26 77.18,-26.18 28.54,14.08 40.26,48.65 26.18,77.19 -26.58,53.61 -67.67,98.65 -118.02,129.91l-0.23 0c-49.01,30.4 -106.6,47.98 -168.05,47.98 -61.45,0 -119.04,-17.58 -168.05,-47.98l-0.23 0c-50.35,-31.26 -91.44,-76.3 -118.02,-129.91 -14.08,-28.54 -2.36,-63.11 26.18,-77.19 28.54,-14.08 63.11,-2.36 77.18,26.18 16.91,34.09 43.23,62.86 75.61,82.96l-0.07 0.09c30.99,19.2 67.79,30.28 107.4,30.28 39.61,0 76.41,-11.08 107.4,-30.28l-0.07 -0.09c32.38,-20.1 58.7,-48.87 75.61,-82.96z"/>
  </g>
 </g>
</svg>
