<?xml version="1.0" encoding="UTF-8"?>
<!DOCTYPE svg PUBLIC "-//W3C//DTD SVG 1.1//EN" "http://www.w3.org/Graphics/SVG/1.1/DTD/svg11.dtd">
<!-- Creator: CorelDRAW 2019 (64-Bit) -->
<svg xmlns="http://www.w3.org/2000/svg" xml:space="preserve" width="11.8mm" height="11.8mm" version="1.1" style="shape-rendering:geometricPrecision; text-rendering:geometricPrecision; image-rendering:optimizeQuality; fill-rule:evenodd; clip-rule:evenodd"
viewBox="0 0 1180 1180"
 xmlns:xlink="http://www.w3.org/1999/xlink"
 xmlns:xodm="http://www.corel.com/coreldraw/odm/2003">
 <defs>
  <style type="text/css">
   <![CDATA[
    .fil0 {fill:#34DEC4;fill-rule:nonzero}
   ]]>
  </style>
 </defs>
 <g id="Слой_x0020_1">
  <metadata id="CorelCorpID_0Corel-Layer"/>
  <g id="_2444803835584">
   <path class="fil0" d="M397.11 505.66c29.37,25.57 32.46,70.12 6.89,99.49 -25.57,29.37 -70.12,32.46 -99.49,6.89l-278.38 -242.38c-29.37,-25.57 -32.46,-70.12 -6.89,-99.49 2.41,-2.77 4.98,-5.3 7.7,-7.6l277.57 -241.66c29.37,-25.57 73.92,-22.48 99.49,6.89 25.57,29.37 22.48,73.92 -6.89,99.49l-217.29 189.18 217.29 189.19z"/>
   <path class="fil0" d="M870.14 612.04c-29.37,25.57 -73.92,22.48 -99.49,-6.89 -25.57,-29.37 -22.48,-73.92 6.89,-99.49l217.29 -189.19 -217.29 -189.18c-29.37,-25.57 -32.46,-70.12 -6.89,-99.49 25.57,-29.37 70.12,-32.46 99.49,-6.89l277.57 241.66c2.72,2.3 5.29,4.83 7.7,7.6 25.57,29.37 22.48,73.92 -6.89,99.49l-278.38 242.38z"/>
   <path class="fil0" d="M932.55 826.65c17.19,-34.85 59.4,-49.16 94.25,-31.97 34.85,17.19 49.16,59.4 31.97,94.25 -43.64,88.01 -111.31,162.12 -194.47,213.77l0.08 0.13c-80.62,50.04 -175.58,78.94 -277.05,78.94 -101.47,0 -196.43,-28.9 -277.05,-78.94l0.08 -0.13c-83.16,-51.65 -150.83,-125.76 -194.47,-213.77 -17.19,-34.85 -2.88,-77.06 31.97,-94.25 34.85,-17.19 77.06,-2.88 94.25,31.97 32.02,64.57 81.55,118.85 142.31,156.56l0.28 0c58.66,36.41 128.09,57.44 202.63,57.44 74.54,0 143.97,-21.03 202.63,-57.44l0.28 0c60.76,-37.71 110.29,-91.99 142.31,-156.56z"/>
  </g>
 </g>
</svg>
