<?xml version="1.0" encoding="UTF-8"?>
<!DOCTYPE svg PUBLIC "-//W3C//DTD SVG 1.1//EN" "http://www.w3.org/Graphics/SVG/1.1/DTD/svg11.dtd">
<!-- Creator: CorelDRAW 2019 (64-Bit) -->
<svg xmlns="http://www.w3.org/2000/svg" xml:space="preserve" width="23.7167mm" height="21.6988mm" version="1.1" style="shape-rendering:geometricPrecision; text-rendering:geometricPrecision; image-rendering:optimizeQuality; fill-rule:evenodd; clip-rule:evenodd"
viewBox="0 0 2356.16 2155.69"
 xmlns:xlink="http://www.w3.org/1999/xlink"
 xmlns:xodm="http://www.corel.com/coreldraw/odm/2003">
 <defs>
  <style type="text/css">
   <![CDATA[
    .fil0 {fill:#34DEC4;fill-rule:nonzero}
   ]]>
  </style>
 </defs>
 <g id="Слой_x0020_1">
  <metadata id="CorelCorpID_0Corel-Layer"/>
  <g id="_2444729724656">
   <path class="fil0" d="M2090.64 1588.3c-84.52,170.48 -215.64,314.04 -376.73,414.1l0.18 0.29c-156.24,96.98 -340.23,153 -536.77,153 -196.54,0 -380.53,-56.02 -536.77,-153l0.18 -0.29c-161.09,-100.06 -292.22,-243.63 -376.73,-414.1l280.36 -138.34c58.71,118.39 149.5,217.93 260.86,287.03l0.63 0c107.46,66.7 234.74,105.24 371.47,105.24 136.72,0 263.99,-38.54 371.46,-105.24l0.63 0c111.36,-69.09 202.16,-168.64 260.86,-287.03l280.37 138.34z"/>
   <polygon class="fil0" points="1535.29,90.58 1162.41,1308.68 863.66,1218.09 1236.54,0 "/>
   <polygon class="fil0" points="611.05,767.18 -0,765.53 -0,453.32 611.05,454.96 "/>
   <polygon class="fil0" points="2356.16,767.18 1745.11,765.53 1745.11,453.32 2356.16,454.96 "/>
  </g>
 </g>
</svg>
