<?xml version="1.0" encoding="UTF-8"?>
<!DOCTYPE svg PUBLIC "-//W3C//DTD SVG 1.1//EN" "http://www.w3.org/Graphics/SVG/1.1/DTD/svg11.dtd">
<!-- Creator: CorelDRAW 2019 (64-Bit) -->
<svg xmlns="http://www.w3.org/2000/svg" xml:space="preserve" width="52.1096mm" height="52.1096mm" version="1.1" style="shape-rendering:geometricPrecision; text-rendering:geometricPrecision; image-rendering:optimizeQuality; fill-rule:evenodd; clip-rule:evenodd"
viewBox="0 0 5207.5 5207.5"
 xmlns:xlink="http://www.w3.org/1999/xlink"
 xmlns:xodm="http://www.corel.com/coreldraw/odm/2003">
 <defs>
  <style type="text/css">
   <![CDATA[
    .fil0 {fill:black}
    .fil1 {fill:#34DEC4}
    .fil2 {fill:white}
   ]]>
  </style>
 </defs>
 <g id="Слой_x0020_1">
  <metadata id="CorelCorpID_0Corel-Layer"/>
  <g id="_3115779582352">
   <circle class="fil0" cx="2603.75" cy="2603.75" r="2603.75"/>
   <path class="fil1" d="M2126.51 1343.37l172.23 0 0 -185.79 185.09 0c0,127.3 0,254.6 0,381.9l-171.87 0 0 160.35 -172.99 0 0 183.38 333.84 0 0 -185.09 198.29 0 0 -167.46 147.64 0 0 -167.46 583.89 0 0 -176.27 226.95 0 0 -167.46 185.09 0c0,179.96 -0.01,359.89 -0.01,539.84l-180.68 0 0 167.46 -189.47 0 0 167.46 -344.05 0 0 185.09 -188.08 0 0 174.06 567.38 0 0 -189.49 361.36 0 0 -167.46 185.09 0 0 196.11 -171.87 0 0 167.46 -138.84 0 0 189.49 -229.16 0 0 176.27 -334.92 0 0 149.44 -176.78 0c0,102.58 -0.03,205.07 -0.03,307.65l185.09 0 0 -152.02 312.81 0 0 -195.1 364.2 0 0 -167.46 185.09 0 0 196.11 -174.7 0c0,108.87 0,217.73 0,326.59l-360.75 0 0 187.99 -193.9 0 0 185.08 -202.72 0 0 180.68 -497.35 0 0 153.06 -292.04 0 0 -153.06 -127.28 0 0 -180.68 -21.39 0 0 -196.11 348.35 0 0 -176.95 -141.63 0 0 -150.51 -141.64 0 0 -165.26 -146.12 0 0 -149.44 -141.57 0 0 -176.27 -146.18 0 0 -185.09 -141.63 0 0 -185.09 -136.65 0 -0.84 -381.2 388.41 0 0 -167.46 234.31 0 0 -187.3z"/>
   <path class="fil2" d="M2183.06 3564.94l130.37 0 0 231.55 130.39 0 0 238.34 -153.16 0 0 153.2 -249.24 0 0 -153.2 -132.63 0 0 -231.56 -132.63 0 0 -210.98 -136.01 0 0 156.24 -149.49 0 0 159.61c-103.68,0 -205.66,0.69 -309.36,0.69 0,-687.13 0,-1374.28 0,-2061.41l322.85 0 0 152.87 141.63 0 0 155.12 152.86 0 0 152.87 129.44 0 0 -152.35c144.82,0 287.41,-1.06 433.34,-1.06l0 -159 158.1 0 0 166.91 -142.5 0 0 155.58 -148.72 0 0 129.57c144.89,0 289.17,-0.31 433.86,-0.31l0 -163.22 158.1 0 0 319 -146.87 0 0 208.44 -170.17 0 0 111.46 287.26 0 0 166.91 -133.07 0c0,107.71 0.85,213.38 0.85,321.16l-475.18 0 0 153.59zm316.97 -473.97l-141.63 0 0 -149.34 -141.64 0 0 -160.89 -146.12 0 0 -152.87 -141.63 0 0 -152.87 -146.12 0 0 -152.87 -141.63 0 0 -155.11 -152.87 0 0 -152.88 -149.74 0 0 1727.25 144.12 0 0 -159.61 147.25 0 0 -156.24 157.36 0 0 150.62 146.13 0 0 220.31 132.63 0 0 224.8 220.3 0 0 -218.02 -130.39 0 0 -227.66 -130.37 0 0 -331.01c158.12,0 316.2,0.02 474.34,0.02l0 -153.65z"/>
  </g>
 </g>
</svg>
