<svg id="Слой_1" data-name="Слой 1" xmlns="http://www.w3.org/2000/svg" viewBox="0 0 300 300"><defs><style>.cls-1{fill:#29e2c3;}.cls-2{fill:#fff;}.cls-3{fill:#fcfcfb;}</style></defs><title>Advantage-slide1</title><circle class="cls-1" cx="150" cy="150" r="150"/><rect class="cls-2" x="26.69" y="95.53" width="127.61" height="91.71"/><rect class="cls-1" x="37.41" y="104.98" width="106.17" height="72.82"/><path class="cls-2" d="M78.32,156.69H59.52l-3.58,10.72H44.54l19.37-52h9.94l19.48,52H81.93ZM62.41,148h13l-6.54-19.48Z"/><path class="cls-2" d="M109.56,158.79h26.23v8.62H96.15v-6.29l25.74-37.07H96.19v-8.68h39v6.15Z"/><rect class="cls-3" x="40.92" y="195.4" width="98.5" height="9.07"/><rect class="cls-2" x="81.79" y="183.78" width="16.5" height="12.99"/><rect class="cls-2" x="158.37" y="107.58" width="72.34" height="96.88"/><rect class="cls-1" x="165.82" y="115.72" width="57.44" height="80.61"/><path class="cls-2" d="M189,164.35h-9.62l-1.83,5.48h-5.83l9.91-26.62h5.08l10,26.62H190.8Zm-8.14-4.45h6.66l-3.35-10Z"/><path class="cls-2" d="M204.94,165.43h13.42v4.4H198.08v-3.22l13.17-19H198.1v-4.44h20v3.14Z"/><circle class="cls-1" cx="194.54" cy="200.4" r="2.04"/><rect class="cls-2" x="233.82" y="151.58" width="39.49" height="52.89"/><rect class="cls-1" x="237.88" y="156.02" width="31.36" height="44.01"/><path class="cls-2" d="M250.52,182.56h-5.25l-1,3h-3.19L246.5,171h2.77l5.44,14.54h-3.18Zm-4.44-2.42h3.63l-1.83-5.44Z"/><path class="cls-2" d="M259.24,183.15h7.33v2.41H255.5V183.8l7.19-10.35h-7.18V171h10.9v1.72Z"/><circle class="cls-1" cx="253.56" cy="202.25" r="1.11"/></svg>