<svg id="Слой_1" data-name="Слой 1" xmlns="http://www.w3.org/2000/svg" viewBox="0 0 300 300"><defs><style>.cls-1{fill:#29e2c3;}.cls-2{fill:#fff;}.cls-3{fill:#fcfcfc;}</style></defs><title>Advantage-slide2</title><circle class="cls-1" cx="150" cy="150" r="150"/><rect class="cls-2" x="132.1" y="45.39" width="35.81" height="16.65" rx="4"/><rect class="cls-2" x="221.1" y="95.64" width="15.43" height="17.65" rx="4" transform="translate(170.26 -140.16) rotate(52)"/><rect class="cls-2" x="97.18" y="140.56" width="79.06" height="9.4" rx="4" transform="translate(167.01 -51.9) rotate(52)"/><rect class="cls-2" x="127.8" y="150.38" width="58.76" height="9.4" rx="4" transform="translate(377.98 153.6) rotate(135)"/><rect class="cls-1" x="65.11" y="160.98" width="1.76" height="1.65"/><rect class="cls-1" x="63.35" y="160.98" width="1.76" height="1.65"/><circle class="cls-3" cx="69.34" cy="135.57" r="9.69"/><circle class="cls-2" cx="79.48" cy="115.05" r="9.69"/><path class="cls-2" d="M150,67.92A94.52,94.52,0,0,0,81.4,97.3l15.24-.93.75,12.34a75.07,75.07,0,1,1-21.55,65.38L92.14,183a4,4,0,0,0,5.43-1.59l2.72-5A4,4,0,0,0,98.7,171L68.59,154.56a7,7,0,0,0-1.16-.58,6.78,6.78,0,0,0-2.31-.42,6.37,6.37,0,0,0-4.7,1.89l-.12.12-.26.23L35.59,180.24a4,4,0,0,0,0,5.66l4,4a4,4,0,0,0,5.66,0l11.24-11.25A94.84,94.84,0,1,0,150,67.92Z"/></svg>