<?xml version="1.0" encoding="utf-8"?>
<!-- Generator: Adobe Illustrator 23.0.0, SVG Export Plug-In . SVG Version: 6.00 Build 0)  -->
<svg version="1.1" xmlns="http://www.w3.org/2000/svg" xmlns:xlink="http://www.w3.org/1999/xlink" x="0px" y="0px"
	 viewBox="0 0 300 300" style="enable-background:new 0 0 300 300;" xml:space="preserve">
<style type="text/css">
	.st0{fill:#29E2C3;}
	.st1{fill:#FFFFFF;}
	.st2{fill:#FCFCFB;}
</style>
<g id="Слой_4">
</g>
<g id="Слой_2">
	<circle class="st0" cx="150" cy="150" r="150"/>
</g>
<g id="Слой_1">
	<path class="st1" d="M21.7,94.7H150c0.5,0,0.9,0.4,0.9,0.9v91.7c0,0.5-0.4,0.9-0.9,0.9H21.7c-0.5,0-0.9-0.4-0.9-0.9V95.6
		C20.8,95.1,21.2,94.7,21.7,94.7z"/>
	<rect x="28.7" y="102.3" class="st0" width="114.2" height="78.4"/>
	<path class="st2" d="M36.2,197.9h99.2c0.3,0,0.6,0.3,0.6,0.6v6.3c0,0.3-0.3,0.6-0.6,0.6H36.2c-0.3,0-0.6-0.3-0.6-0.6v-6.3
		C35.7,198.1,35.9,197.9,36.2,197.9z"/>
	<rect x="81.8" y="184.6" class="st1" width="8" height="13.2"/>
	<rect x="38.2" y="104.9" class="st1" width="95.8" height="5.7"/>
	<path class="st1" d="M60.9,143.6H42.1c-1.9,0-3.4-1.5-3.4-3.4v-18.8c0-1.9,1.5-3.4,3.4-3.4h18.8c1.9,0,3.4,1.5,3.4,3.4v18.8
		C64.3,142.1,62.8,143.6,60.9,143.6z"/>
	<path class="st1" d="M123.8,118.1H89.5c-0.5,0-1-0.4-1-1v-0.6c0-0.5,0.4-1,1-1h34.3c0.5,0,1,0.4,1,1v0.6
		C124.8,117.7,124.4,118.1,123.8,118.1z"/>
	<rect x="79.3" y="121.1" class="st1" width="54.6" height="2.1"/>
	<rect x="79.3" y="125" class="st1" width="54.6" height="2.1"/>
	<rect x="79.3" y="129" class="st1" width="54.6" height="2.1"/>
	<rect x="79.3" y="132.9" class="st1" width="54.6" height="2.1"/>
	<path class="st1" d="M101.3,150H72.1c-0.5,0-0.8-0.4-0.8-0.8v-1c0-0.5,0.4-0.8,0.8-0.8h29.2c0.5,0,0.8,0.4,0.8,0.8v1
		C102.2,149.6,101.8,150,101.3,150z"/>
	<path class="st1" d="M52.6,170.3h-8.5c-0.4,0-0.8-0.3-0.8-0.8v-0.3c0-0.4,0.3-0.8,0.8-0.8h8.5c0.4,0,0.8,0.3,0.8,0.8v0.3
		C53.4,169.9,53,170.3,52.6,170.3z"/>
	<rect x="38.2" y="171.8" class="st1" width="20.3" height="1"/>
	<rect x="38.2" y="173.8" class="st1" width="20.4" height="1"/>
	<rect x="63.3" y="171.8" class="st1" width="20.3" height="1"/>
	<rect x="63.3" y="173.8" class="st1" width="20.4" height="1"/>
	<rect x="88.5" y="171.8" class="st1" width="20.3" height="1"/>
	<rect x="88.5" y="173.8" class="st1" width="20.4" height="1"/>
	<rect x="113.6" y="171.8" class="st1" width="20.3" height="1"/>
	<rect x="113.6" y="173.8" class="st1" width="20.4" height="1"/>
	<circle class="st1" cx="48.3" cy="160.3" r="6.6"/>
	<circle class="st1" cx="73.5" cy="160.3" r="6.6"/>
	<circle class="st1" cx="98.6" cy="160.3" r="6.6"/>
	<circle class="st1" cx="123.8" cy="160.3" r="6.6"/>
	<path class="st1" d="M77.7,170.3h-8.5c-0.4,0-0.8-0.3-0.8-0.8v-0.3c0-0.4,0.3-0.8,0.8-0.8h8.5c0.4,0,0.8,0.3,0.8,0.8v0.3
		C78.5,169.9,78.2,170.3,77.7,170.3z"/>
	<path class="st1" d="M102.9,170.3h-8.5c-0.4,0-0.8-0.3-0.8-0.8v-0.3c0-0.4,0.3-0.8,0.8-0.8h8.5c0.4,0,0.8,0.3,0.8,0.8v0.3
		C103.7,169.9,103.3,170.3,102.9,170.3z"/>
	<path class="st1" d="M128,170.3h-8.5c-0.4,0-0.8-0.3-0.8-0.8v-0.3c0-0.4,0.3-0.8,0.8-0.8h8.5c0.4,0,0.8,0.3,0.8,0.8v0.3
		C128.8,169.9,128.5,170.3,128,170.3z"/>
</g>
<g id="Слой_5">
	<path class="st1" d="M160.1,142.8h79.4c0.6,0,1.1,0.5,1.1,1.1v56.4c0,0.6-0.5,1.1-1.1,1.1h-79.4c-0.6,0-1.1-0.5-1.1-1.1V144
		C158.9,143.3,159.4,142.8,160.1,142.8z"/>
	<rect x="163.9" y="147.6" class="st0" width="71.7" height="49.2"/>
	<rect x="169.8" y="149.3" class="st1" width="60.2" height="3.6"/>
	<path class="st1" d="M179.8,170.5h-6.3c-1.9,0-3.4-1.5-3.4-3.4v-6.3c0-1.9,1.5-3.4,3.4-3.4h6.3c1.9,0,3.4,1.5,3.4,3.4v6.3
		C183.2,169,181.7,170.5,179.8,170.5z"/>
	<path class="st1" d="M222.8,157.3h-20c-0.3,0-0.6-0.3-0.6-0.6v-0.2c0-0.3,0.3-0.6,0.6-0.6h20c0.3,0,0.6,0.3,0.6,0.6v0.2
		C223.4,157,223.1,157.3,222.8,157.3z"/>
	<rect x="195.7" y="159.4" class="st1" width="34.3" height="1.3"/>
	<rect x="195.7" y="161.9" class="st1" width="34.3" height="1.3"/>
	<rect x="195.7" y="164.4" class="st1" width="34.3" height="1.3"/>
	<rect x="195.7" y="166.8" class="st1" width="34.3" height="1.3"/>
	<path class="st1" d="M209.5,175.2h-18.3c-0.3,0-0.6-0.3-0.6-0.6v-0.5c0-0.3,0.3-0.6,0.6-0.6h18.3c0.3,0,0.6,0.3,0.6,0.6v0.5
		C210,174.9,209.8,175.2,209.5,175.2z"/>
	<path class="st1" d="M181.4,190.3h-5.5c-0.2,0-0.4-0.2-0.4-0.4v-0.4c0-0.2,0.2-0.4,0.4-0.4h5.5c0.2,0,0.4,0.2,0.4,0.4v0.4
		C181.8,190.1,181.6,190.3,181.4,190.3z"/>
	<rect x="170.2" y="191.3" class="st1" width="16.8" height="0.6"/>
	<rect x="170.2" y="192.5" class="st1" width="16.8" height="0.6"/>
	<circle class="st1" cx="178.6" cy="183.3" r="4.9"/>
	<path class="st2" d="M153.8,205.3h91.9c0.5,0,1-0.4,1-1v-2.8c0-0.5-0.4-1-1-1h-91.9c-0.5,0-1,0.4-1,1v2.8
		C152.9,204.9,153.3,205.3,153.8,205.3z"/>
	<path class="st1" d="M202.9,190.3h-5.5c-0.2,0-0.4-0.2-0.4-0.4v-0.4c0-0.2,0.2-0.4,0.4-0.4h5.5c0.2,0,0.4,0.2,0.4,0.4v0.4
		C203.3,190.1,203.1,190.3,202.9,190.3z"/>
	<rect x="191.8" y="191.3" class="st1" width="16.8" height="0.6"/>
	<rect x="191.8" y="192.5" class="st1" width="16.8" height="0.6"/>
	<circle class="st1" cx="200.2" cy="183.3" r="4.9"/>
	<path class="st1" d="M224.5,190.3H219c-0.2,0-0.4-0.2-0.4-0.4v-0.4c0-0.2,0.2-0.4,0.4-0.4h5.5c0.2,0,0.4,0.2,0.4,0.4v0.4
		C224.9,190.1,224.7,190.3,224.5,190.3z"/>
	<rect x="213.3" y="191.3" class="st1" width="16.8" height="0.6"/>
	<rect x="213.3" y="192.5" class="st1" width="16.8" height="0.6"/>
	<circle class="st1" cx="221.7" cy="183.3" r="4.9"/>
</g>
<g id="Слой_6">
	<path class="st1" d="M248.7,204.7v-41.2c0-0.3,0.3-0.6,0.6-0.6h29.3c0.3,0,0.6,0.3,0.6,0.6v41.2c0,0.3-0.3,0.6-0.6,0.6h-29.3
		C249,205.3,248.7,205,248.7,204.7z"/>
	<rect x="251.2" y="165.5" class="st0" width="25.6" height="37.3"/>
	
		<rect x="252.1" y="166.6" transform="matrix(-1 4.330498e-07 -4.330498e-07 -1 527.8667 334.9825)" class="st1" width="23.6" height="1.9"/>
	<path class="st1" d="M268.8,181.9h-9.8c-0.2,0-0.3-0.1-0.3-0.3v-0.1c0-0.2,0.1-0.3,0.3-0.3h9.8c0.2,0,0.3,0.1,0.3,0.3v0.1
		C269.1,181.8,269,181.9,268.8,181.9z"/>
	<rect x="252.1" y="183" class="st1" width="23.6" height="0.7"/>
	<rect x="252.1" y="184.3" class="st1" width="23.6" height="0.7"/>
	<rect x="252.1" y="185.6" class="st1" width="23.6" height="0.7"/>
	<rect x="252.1" y="186.9" class="st1" width="23.6" height="0.7"/>
	<path class="st1" d="M268.6,191.1h-9.4c-0.2,0-0.4-0.2-0.4-0.4v-0.1c0-0.2,0.2-0.4,0.4-0.4h9.4c0.2,0,0.4,0.2,0.4,0.4v0.1
		C269,190.9,268.8,191.1,268.6,191.1z"/>
	<path class="st1" d="M265.7,200h-3.6c-0.1,0-0.3-0.1-0.3-0.3v-0.3c0-0.1,0.1-0.3,0.3-0.3h3.6c0.1,0,0.3,0.1,0.3,0.3v0.3
		C266,199.9,265.9,200,265.7,200z"/>
	<rect x="258.5" y="200.6" class="st1" width="10.9" height="0.4"/>
	<rect x="258.5" y="201.4" class="st1" width="10.9" height="0.4"/>
	<circle class="st1" cx="263.9" cy="195.4" r="3.2"/>
	<path class="st1" d="M272.6,179.8h-17.8c-0.3,0-0.6-0.3-0.6-0.6v-8.8c0-0.3,0.3-0.6,0.6-0.6h17.8c0.3,0,0.6,0.3,0.6,0.6v8.8
		C273.2,179.5,273,179.8,272.6,179.8z"/>
</g>
</svg>
