<?xml version="1.0" encoding="UTF-8"?>
<!DOCTYPE svg PUBLIC "-//W3C//DTD SVG 1.1//EN" "http://www.w3.org/Graphics/SVG/1.1/DTD/svg11.dtd">
<!-- Creator: CorelDRAW 2019 (64-Bit) -->
<svg xmlns="http://www.w3.org/2000/svg" xml:space="preserve" width="52.12mm" height="52.12mm" version="1.1" style="shape-rendering:geometricPrecision; text-rendering:geometricPrecision; image-rendering:optimizeQuality; fill-rule:evenodd; clip-rule:evenodd"
viewBox="0 0 5212 5212"
 xmlns:xlink="http://www.w3.org/1999/xlink"
 xmlns:xodm="http://www.corel.com/coreldraw/odm/2003">
 <defs>
  <style type="text/css">
   <![CDATA[
    .fil4 {fill:none}
    .fil3 {fill:black}
    .fil0 {fill:black}
    .fil2 {fill:#34DEC4}
    .fil1 {fill:white}
   ]]>
  </style>
 </defs>
 <g id="Слой_x0020_1">
  <metadata id="CorelCorpID_0Corel-Layer"/>
  <g id="_3115741627744">
   <circle class="fil0" cx="2604.93" cy="2608" r="2605.48"/>
   <g>
    <rect class="fil1" x="2219.72" y="3761.78" width="905.93" height="178.95"/>
    <rect class="fil1" x="3104.17" y="3585.86" width="235.17" height="181.92"/>
    <rect class="fil1" x="3333.76" y="3421.62" width="231.04" height="182.14"/>
    <rect class="fil1" x="2153.85" y="3234.62" width="538.23" height="181.99"/>
    <rect class="fil1" x="3561.62" y="3257.36" width="231.04" height="181.38"/>
    <rect class="fil1" x="1806.35" y="3922.16" width="1066.67" height="190.78"/>
    <polygon class="fil1" points="2363.31,1270.19 2532.25,1270.19 2532.25,1113.05 2925.12,1113.05 2925.12,1270.19 3094.06,1270.19 3094.06,1443.05 3259.06,1443.05 3259.06,2338.82 3094.06,2338.82 3094.06,2511.68 2925.12,2511.68 2925.12,2668.81 2532.25,2668.81 2532.25,2511.68 2363.31,2511.68 2363.31,2338.82 2198.3,2338.82 2198.3,1443.05 2363.31,1443.05 "/>
    <polygon class="fil2" points="2115.82,1270.19 2284.76,1270.19 2284.76,1113.05 2677.63,1113.05 2677.63,1270.19 2846.57,1270.19 2846.57,1443.05 3011.57,1443.05 3011.57,2338.82 2846.57,2338.82 2846.57,2511.68 2677.63,2511.68 2677.63,2668.81 2284.76,2668.81 2284.76,2511.68 2115.82,2511.68 2115.82,2338.82 1950.82,2338.82 1950.82,1443.05 2115.82,1443.05 "/>
    <polygon class="fil1" points="2241.53,1474.45 2360.94,1474.45 2360.94,1352.3 2575.49,1352.3 2575.49,1475.48 2386.9,1475.48 2386.9,2346.64 2241.53,2346.64 "/>
    <polygon class="fil3" points="2575.49,1474.45 2720.86,1474.45 2720.86,2346.64 2601.03,2346.64 2601.03,2470.38 2386.47,2470.38 2386.47,2345.72 2575.49,2345.72 "/>
    <rect class="fil2" x="3111.7" y="3254.65" width="452.88" height="185.21"/>
    <rect class="fil2" x="1415.65" y="3404.49" width="759.26" height="206.25"/>
    <rect class="fil2" x="2206.31" y="3577.35" width="919.35" height="190.52"/>
    <rect class="fil2" x="1970.58" y="3000.81" width="721.5" height="239.66"/>
    <rect class="fil2" x="1793.8" y="3211.44" width="381.1" height="226.44"/>
    <rect class="fil2" x="1417.2" y="3549.86" width="523.27" height="239.66"/>
    <rect class="fil2" x="3335.5" y="3086.41" width="457.16" height="196.81"/>
    <rect class="fil2" x="1621.49" y="3577.35" width="1251.52" height="363.38"/>
    <rect class="fil2" x="2886.79" y="3418.55" width="452.88" height="185.21"/>
    <polygon class="fil4" points="2279.75,1108.22 2675.5,1108.22 2675.5,1274.18 2279.75,1274.18 "/>
   </g>
  </g>
 </g>
</svg>
