<svg id="Слой_1" data-name="Слой 1" xmlns="http://www.w3.org/2000/svg" viewBox="0 0 53.98 14.6"><defs><style>.cls-1{fill:#fff;}</style></defs><title>swipedown</title><path class="cls-1" d="M6.68,8H4.77V5.13H1.92V8H0V1.32H1.92V4.18H4.77V1.32H6.68Z" transform="translate(-0.01 -1.32)"/><path class="cls-1" d="M14.56,8h-1.9V6.09H9.8V8H7.9V3.23h.95v-1h1v-1h2.86v1h.95v1h1Zm-1.9-2.86V3.23h-.95v-1h-1v1H9.8v1.9Z" transform="translate(-0.01 -1.32)"/><path class="cls-1" d="M20.54,4.18v1h1v1h.95V8H21.5V7h-1v-1h-.95V8h-.95V6.09h-.95V7h-1V8h-1V6.09h1v-1h1v-1h-1V3.23h-1V1.32h1v1h1v1h.95V1.32h.95V3.23h.95v-1h1v-1h.95V3.23H21.5v.95Z" transform="translate(-0.01 -1.32)"/><path class="cls-1" d="M30.34,8H28.43V5.13h-.95v1h-.95v-1h-1V8h-1.9V1.32h1.9v1h1v1h.95v-1h.95v-1h1.91Z" transform="translate(-0.01 -1.32)"/><path class="cls-1" d="M31.55,1.32h1.91V4.18h.95V3.23h1v-1h1v-1h1.9V8h-1.9V5.13h-1v1h-1V7h-.95V8H31.55Z" transform="translate(-0.01 -1.32)"/><path class="cls-1" d="M45.63,2.28h-1.9V8H41.82V2.28h-1.9v-1h5.71Z" transform="translate(-0.01 -1.32)"/><path class="cls-1" d="M54,8H47.33V1.32H54v1H49.23v1.9H53v1H49.23V7H54Z" transform="translate(-0.01 -1.32)"/><path class="cls-1" d="M26.57,15.93V15h-.95V14h-.95v-.95h-1v-1.9h1v.95h.95v1h.95V14h.95v-.95h.95v-1h1v-.95h.95v1.9h-.95V14h-1v1h-.95v1Z" transform="translate(-0.01 -1.32)"/></svg>